<svg width="359" height="250" viewBox="0 0 359 250" fill="none" xmlns="http://www.w3.org/2000/svg">
<g clip-path="url(#clip0)">
<path d="M35.8823 42.4417C45.567 42.4417 53.418 34.5907 53.418 24.906C53.418 15.2213 45.567 7.37036 35.8823 7.37036C26.1977 7.37036 18.3467 15.2213 18.3467 24.906C18.3467 34.5907 26.1977 42.4417 35.8823 42.4417Z" fill="#6C63FF"/>
<path opacity="0.1" d="M33.7399 60.6035C41.1026 77.2339 31.7106 96.3839 20.6551 110.804C16.9548 115.64 12.8698 120.709 12.3568 126.774C11.7382 134.194 16.7624 141.013 22.7221 145.472C33.5927 153.596 48.439 156.108 61.3767 152.008C72.5567 148.467 81.9563 140.466 93.2343 137.241C112.094 131.84 132.085 140.794 148.236 151.952C159.669 159.839 171.913 169.45 185.695 167.76C195.393 166.572 203.623 159.763 209.21 151.748C211.906 147.878 214.253 143.54 218.179 140.93C220.514 139.376 223.256 138.554 225.998 137.966C251.04 132.613 277.617 145.675 302.327 138.958C319.018 134.431 332.325 121.23 340.601 106.04C348.876 90.8505 352.739 73.6996 355.956 56.7071C358.242 44.6369 360.139 31.5974 354.885 20.4966C349.325 8.74334 336.455 1.61818 323.521 0.282925C310.587 -1.05234 297.616 2.63283 285.7 7.83054C270.813 14.3409 256.219 23.4538 239.97 23.484C228.903 23.5066 218.349 19.2595 207.769 16.0194C190.078 10.6067 171.683 7.91729 153.351 5.43537C135.8 3.05906 118.076 0.848713 100.42 2.25187C87.9272 3.24388 76.8944 8.01913 64.7714 10.2295C56.8693 11.6704 48.9294 10.6067 41.1743 13.0207C31.6238 16.0081 21.8017 22.9295 21.2737 33.8304C20.7758 44.2069 29.8359 51.7809 33.7399 60.6035Z" fill="#6C63FF"/>
<path d="M227.032 75.412C225.421 71.2138 221.268 61.3465 218.534 63.3041C215.079 65.7785 221.989 76.7095 221.989 76.7095C222.185 78.7161 218.3 82.8917 216.218 84.9738C216.218 84.8078 216.218 84.7135 216.218 84.7135C216.198 84.7927 216.167 84.8688 216.127 84.9398L215.954 84.8455C215.907 85.0119 215.823 85.1654 215.708 85.2944C215.708 85.0115 215.69 84.8455 215.69 84.8455C215.29 86.5391 208.312 88.6853 208.312 88.6853C208.312 88.6853 208.123 88.6853 207.799 88.6853C205.86 88.6853 200.813 88.2478 198.475 84.506C197.265 82.479 195.718 80.6739 193.899 79.1688C193.277 78.6809 192.52 78.3941 191.73 78.3465C185.269 77.9316 180.037 74.6613 178.993 73.9635L178.8 73.8315L178.759 73.9522C178.514 73.6014 178.276 73.228 178.053 72.8433L177.94 72.6358C179.504 71.8507 180.82 70.6478 181.742 69.1604C182.665 67.673 183.157 65.9593 183.164 64.2093C183.164 64.1452 183.164 64.0773 183.164 64.0132C183.733 63.0307 184.032 61.9157 184.032 60.7807V59.6491L185.507 58.3365C186.182 57.7367 186.88 57.1031 187.223 56.277C187.361 55.9427 187.423 55.582 187.404 55.2209C187.437 54.9115 187.391 54.5988 187.269 54.3124C187.148 54.0259 186.955 53.7752 186.71 53.5838C185.578 52.8031 183.692 53.5839 182.874 52.4975C182.497 52.0072 182.565 51.3396 182.38 50.7625C182.003 49.5894 180.645 48.9557 179.389 48.9368C178.133 48.918 176.929 49.3744 175.722 49.7176C173.186 50.4376 170.54 50.6856 167.914 50.4494C167.204 50.323 166.475 50.3487 165.776 50.5248C165.349 50.7014 164.969 50.9761 164.667 51.3267C164.366 51.6773 164.151 52.0939 164.041 52.5428C163.947 52.8801 163.892 53.2267 163.875 53.5763C162.822 54.7632 162.24 56.2938 162.238 57.8801V60.7807C162.24 62.3292 162.795 63.8259 163.803 65.0015C163.922 66.3663 164.337 67.6888 165.019 68.8769C165.701 70.0651 166.634 71.0904 167.752 71.8814C167.752 71.9569 167.752 72.0336 167.752 72.1115L167.801 72.1417C167.74 73.0409 167.602 73.9332 167.386 74.8084V74.6161C167.386 74.6161 162.106 77.4262 156.448 77.494H155.825C154.709 77.4564 153.624 77.8634 152.808 78.6256C151.133 80.2023 148.199 82.6955 146.396 82.6955C146.018 82.6955 136.498 84.5551 134.922 84.8644L131.976 81.9789L131.885 82.1486L131.712 81.9789C131.389 82.0037 131.069 82.0504 130.754 82.1184C129.245 80.3305 126.227 76.1739 125.529 70.5952C125.529 70.5952 132.044 63.1758 129.648 56.2619C127.604 50.3702 121.973 62.9986 120.373 66.8044C120.093 67.4686 120.059 68.2105 120.275 68.8978L125.567 85.9545C125.063 87.2762 124.919 88.7078 125.148 90.1036H125.088L128.943 95.0486C128.943 95.0486 131.844 96.2858 136.381 96.2631C139.707 96.2686 143.003 95.636 146.09 94.3998H146.984L146.814 94.4639H151.405L154.324 103.294C154.226 104.097 152.815 115.311 151.684 117.82C151.348 118.658 151.196 119.558 151.239 120.46C151.298 122.193 151.581 123.911 152.08 125.571L154.637 125.477L154.539 125.677C152.374 130.116 148.757 138.026 146.618 145.419L142.895 152.963L145.687 186.797H145.8L146.015 186.831C146.316 186.876 146.769 186.944 147.365 187.019L147.146 187.396L140.994 197.581C140.994 197.581 136.608 206.562 146.313 204.868C146.313 204.868 149.9 203.827 151.363 197.701L157.745 191.715C157.745 191.715 158.043 187.74 156.237 186.152C156.123 184.315 155.837 178.951 156.278 177.661C156.81 176.1 154.015 158.141 154.015 158.141C154.015 158.141 164.116 137.188 170.234 136.668C170.683 136.636 171.133 136.695 171.558 136.841C176.586 138.478 182.678 150.635 184.469 154.419L184.552 154.592V154.626L184.62 154.773V154.815L184.681 154.943V154.977L184.733 155.094V155.12L184.779 155.214V155.252L184.813 155.324V155.354L184.835 155.407V155.437V155.471L184.854 155.516L185.65 179.072L185.729 179.113H185.767L185.699 179.6L185.352 182.033C185.352 182.033 189.739 191.274 189.471 192.443C189.203 193.613 192.394 198.301 196.913 197C201.432 195.698 198.742 188.362 198.742 188.362L194.39 179.392L194.197 178.993C194.631 178.727 195.04 178.422 195.419 178.084C195.419 178.084 194.092 168.454 195.419 166.372C196.747 164.29 197.147 154.788 197.147 154.788C197.147 154.788 196.215 148.282 194.62 145.419L187.936 121.561C189.939 123.425 191.497 124.153 192.798 124.104H193.013C193.585 124.114 194.15 123.974 194.65 123.696C194.918 123.545 195.171 123.366 195.404 123.164C195.449 123.126 195.49 123.084 195.529 123.04C197.388 121.478 193.401 115.36 191.142 111.724C188.966 108.216 191.964 98.6847 192.191 97.9756C192.392 97.8278 192.608 97.7014 192.836 97.5984C193.303 97.3979 193.805 97.2891 194.314 97.2778C196.479 97.3532 199.142 98.5979 202.439 99.2241C204.73 99.6138 207.052 99.7943 209.375 99.7635H209.511C210.435 99.7635 211.273 99.7446 211.952 99.7182C212.571 99.6938 213.177 99.5301 213.724 99.2392C214.194 98.9656 214.618 98.6222 214.984 98.2207L220.77 91.684L220.62 91.7557C220.9 91.0144 220.9 90.1961 220.62 89.4548L226.734 78.8934C227.042 78.373 227.23 77.7896 227.281 77.1868C227.333 76.5839 227.247 75.9772 227.032 75.412Z" fill="url(#paint0_linear)"/>
<path d="M158.338 190.821L152.178 196.724C150.767 202.76 147.301 203.782 147.301 203.782C137.935 205.449 142.167 196.615 142.167 196.615L148.108 186.563L148.84 185.322C148.84 185.322 153.076 184.04 155.897 184.809C156.253 184.907 156.583 185.085 156.859 185.33C158.628 186.865 158.338 190.821 158.338 190.821Z" fill="#444176"/>
<path d="M196.317 196.083C191.953 197.366 188.875 192.749 189.15 191.591C189.426 190.433 185.164 181.339 185.164 181.339L185.496 178.94L185.805 176.718L192.971 177.231L193.647 178.649L197.849 187.495C197.849 187.495 200.681 194.801 196.317 196.083Z" fill="#444176"/>
<path opacity="0.1" d="M156.927 186.333C156.252 187.491 150.779 186.906 148.112 186.544L148.844 185.303C148.844 185.303 153.08 184.021 155.901 184.79C156.257 184.888 156.586 185.066 156.863 185.311C156.9 185.937 156.927 186.333 156.927 186.333Z" fill="black"/>
<path opacity="0.1" d="M193.654 178.642C189.984 181.086 186.076 179.238 185.488 178.932L185.797 176.711L192.964 177.224L193.654 178.642Z" fill="black"/>
<path d="M194.65 165.802C193.367 167.854 194.65 177.352 194.65 177.352C190.414 181.203 185.412 178.378 185.412 178.378L184.658 155.154C184.658 155.154 176.318 136.034 170.415 136.547C164.512 137.06 154.762 157.719 154.762 157.719C154.762 157.719 157.455 175.425 156.942 176.956C156.429 178.487 156.942 185.937 156.942 185.937C156.044 187.476 146.679 185.937 146.679 185.937L143.985 152.574L147.561 145.128C149.617 137.841 153.11 130.041 155.199 125.665C156.237 123.489 156.931 122.161 156.931 122.161L163.758 120.739L185.918 116.145L193.88 145.128C195.419 147.95 196.317 154.366 196.317 154.366C196.317 154.366 195.932 163.75 194.65 165.802Z" fill="#565387"/>
<g opacity="0.1">
<path opacity="0.1" d="M187.464 178.378L186.71 155.154C186.71 155.154 178.37 136.034 172.467 136.547C172.203 136.573 171.944 136.631 171.694 136.721C177.45 138.633 184.658 155.154 184.658 155.154L185.412 178.378C186.986 179.18 188.76 179.503 190.516 179.31C189.452 179.182 188.419 178.866 187.464 178.378Z" fill="black"/>
<path opacity="0.1" d="M148.716 185.948L146.022 152.585L149.613 145.128C151.669 137.841 155.162 130.041 157.251 125.665C158.289 123.489 158.983 122.161 158.983 122.161L165.81 120.739L186.039 116.533L185.929 116.13L163.758 120.739L156.931 122.161C156.931 122.161 156.237 123.489 155.199 125.665C153.102 130.041 149.617 137.856 147.561 145.128L143.97 152.57L146.664 185.933C146.664 185.933 151.778 186.774 154.811 186.589C152.77 186.478 150.735 186.264 148.716 185.948Z" fill="black"/>
</g>
<path d="M133.111 82.5938C133.111 82.5938 125.797 82.971 126.823 90.677L128.875 90.9335L131.953 87.5991L133.492 84.7777V84.1365L133.111 82.5938Z" fill="#CED2DF"/>
<path opacity="0.1" d="M133.111 82.5938C133.111 82.5938 125.797 82.971 126.823 90.677L128.875 90.9335L131.953 87.5991L133.492 84.7777V84.1365L133.111 82.5938Z" fill="black"/>
<path d="M214.475 85.4152C214.475 85.4152 220.51 88.6213 218.967 92.3442L217.044 93.0986L214.479 91.6879L214.102 88.3535L214.358 86.0451L214.475 85.4152Z" fill="#CED2DF"/>
<path opacity="0.1" d="M214.475 85.4152C214.475 85.4152 220.51 88.6213 218.967 92.3442L217.044 93.0986L214.479 91.6879L214.102 88.3535L214.358 86.0451L214.475 85.4152Z" fill="black"/>
<path d="M175.726 52.309H170.593C166.199 52.309 162.638 55.8705 162.638 60.2639C162.638 64.6574 166.199 68.2189 170.593 68.2189H175.726C180.12 68.2189 183.681 64.6574 183.681 60.2639C183.681 55.8705 180.12 52.309 175.726 52.309Z" fill="#88455E"/>
<path d="M133.062 83.6838L128.57 90.8504L128.192 89.5755L122.089 69.69C121.881 69.0121 121.914 68.2827 122.184 67.6267C123.726 63.8774 129.166 51.4075 131.138 57.2351C133.447 64.0245 127.159 71.3496 127.159 71.3496C127.876 77.2941 131.214 81.6017 132.526 83.0954C132.858 83.4839 133.062 83.6838 133.062 83.6838Z" fill="#EC8C9C"/>
<path d="M213.513 86.7617C213.513 86.7617 220.571 80.0891 220.303 77.396C220.303 77.396 213.63 66.6196 216.968 64.1943C219.609 62.263 223.618 71.9946 225.172 76.1324C225.378 76.6836 225.46 77.273 225.414 77.8594C225.368 78.4458 225.194 79.015 224.905 79.5271L216.471 94.4602L213.513 86.7617Z" fill="#EC8C9C"/>
<path d="M167.832 68.1586C167.832 68.1586 169.114 76.3701 165.395 79.4518C161.676 82.5334 176.047 82.5146 176.047 82.5146L181.18 77.7657C181.18 77.7657 175.277 72.2474 177.073 68.1436L167.832 68.1586Z" fill="#EC8C9C"/>
<path opacity="0.1" d="M167.575 77.5243C167.575 77.5243 173.093 81.632 178.608 77.0114L187.589 95.6182L187.076 118.329C187.076 118.329 168.469 127.951 160.771 122.052C153.072 116.153 159.488 113.071 159.488 113.071L157.693 95.622L159.616 84.3289C159.616 84.3289 163.079 78.9388 163.339 78.9388C163.6 78.9388 167.575 77.5243 167.575 77.5243Z" fill="black"/>
<path d="M167.575 77.2679C167.575 77.2679 173.093 81.383 178.612 76.7549L187.593 95.3618L187.08 118.072C187.08 118.072 168.473 127.695 160.774 121.795C153.076 115.896 159.492 112.814 159.492 112.814L157.696 95.3655L159.62 84.0724C159.62 84.0724 163.083 78.6823 163.343 78.6823C163.603 78.6823 167.575 77.2679 167.575 77.2679Z" fill="#EBF1F6"/>
<path opacity="0.1" d="M167.575 75.3479C167.575 75.3479 162.343 78.3277 156.663 78.1806C156.13 78.1639 155.599 78.2534 155.101 78.4438C154.603 78.6341 154.148 78.9217 153.762 79.2896C152.144 80.8436 149.311 83.3029 147.558 83.3029C147.18 83.3029 136.264 85.483 136.264 85.483L133.379 82.5975C133.379 82.5975 129.079 91.0014 127.027 90.6166L130.75 95.4937C130.75 95.4937 137.807 98.5716 147.045 94.8525H152.435L155.256 103.577C155.256 103.577 153.845 115.383 152.691 117.948C151.537 120.513 153.068 125.518 153.068 125.518L163.203 125.141C163.203 125.141 163.716 120.136 164.486 119.483C165.255 118.831 161.793 96.7724 161.793 96.7724C161.793 96.7724 159.484 84.3251 167.952 79.8365L167.575 75.3479Z" fill="black"/>
<path opacity="0.1" d="M163.754 120.754C163.381 122.276 163.115 123.823 162.958 125.382L155.199 125.677C156.237 123.5 156.931 122.172 156.931 122.172L163.754 120.754Z" fill="black"/>
<path opacity="0.1" d="M133.062 83.6837L128.57 90.8504L128.193 89.5755C129.841 87.9385 131.772 84.5173 132.542 83.0916C132.858 83.4838 133.062 83.6837 133.062 83.6837Z" fill="black"/>
<path d="M167.575 75.3479C167.575 75.3479 162.083 78.3277 156.406 78.1806C155.874 78.1639 155.343 78.2534 154.845 78.4438C154.347 78.6341 153.892 78.9217 153.506 79.2896C151.888 80.8436 149.055 83.3029 147.301 83.3029C146.924 83.3029 136.008 85.483 136.008 85.483L133.111 82.5938C133.111 82.5938 128.811 90.9976 126.759 90.6129L130.482 95.4899C130.482 95.4899 137.539 98.5678 146.777 94.8487H152.167L154.988 103.569C154.988 103.569 153.578 115.376 152.423 117.94C151.269 120.505 152.8 125.511 152.8 125.511L162.936 125.133C162.936 125.133 163.449 120.128 164.218 119.476C164.988 118.823 161.525 96.7649 161.525 96.7649C161.525 96.7649 159.217 84.3175 167.684 79.8289L167.575 75.3479Z" fill="#CED2DF"/>
<path opacity="0.1" d="M178.612 74.5708C178.612 74.5708 183.847 78.5615 190.836 79.0217C191.601 79.0696 192.332 79.3529 192.93 79.8326C194.693 81.328 196.186 83.114 197.347 85.1133C200.168 89.7339 207.097 89.2209 207.097 89.2209C207.097 89.2209 213.834 87.1049 214.219 85.449C214.219 85.449 214.411 94.5016 218.647 92.3139L213.076 98.7337C212.725 99.1393 212.294 99.4686 211.811 99.7015C211.327 99.9344 210.802 100.066 210.266 100.088C208.172 100.171 204.536 100.197 201.466 99.6013C196.845 98.7035 193.511 96.5234 191.074 98.447C191.074 98.447 187.868 108.454 190.048 112.049C192.228 115.643 196.083 121.671 194.284 123.213C192.485 124.756 190.305 124.624 186.714 120.905C183.123 117.186 182.734 110.898 182.734 110.898L183.632 94.7317C183.632 94.7317 180.169 82.5409 176.843 80.1042L178.612 74.5708Z" fill="black"/>
<path opacity="0.1" d="M219.156 92.1518L213.57 98.598C213.199 99.0256 212.739 99.3679 212.223 99.6013C211.765 99.8083 211.27 99.9249 210.767 99.9445C208.674 100.031 205.038 100.058 201.967 99.458C197.645 98.6168 194.446 96.6554 192.055 97.9794C191.885 98.0727 191.724 98.18 191.572 98.3C191.572 98.3 188.366 108.307 190.546 111.902C192.726 115.496 196.581 121.524 194.782 123.066C194.481 123.331 194.143 123.551 193.779 123.719C192.164 124.447 190.161 123.817 187.212 120.758C183.621 117.035 183.232 110.751 183.232 110.751L184.13 94.5846C184.13 94.5846 180.667 82.3938 177.341 79.9571L178.808 74.6953C179.819 75.3818 184.866 78.6068 191.104 79.0179C191.869 79.0659 192.6 79.3492 193.198 79.8289C194.96 81.3245 196.454 83.1105 197.615 85.1096C200.436 89.7302 207.365 89.2172 207.365 89.2172C209.026 88.6873 210.648 88.042 212.22 87.286C213.204 86.8032 214.072 86.2751 214.483 85.7772C214.598 85.6472 214.682 85.4923 214.728 85.3246C214.728 85.3246 214.924 94.3319 219.156 92.1518Z" fill="black"/>
<path d="M218.9 92.28L213.317 98.7337C213.01 99.0879 212.642 99.3843 212.231 99.6088C211.704 99.8951 211.118 100.056 210.518 100.08C208.425 100.167 204.789 100.193 201.718 99.5937C197.551 98.7828 194.424 96.927 192.066 97.9869C191.797 98.1041 191.543 98.255 191.312 98.4357C191.312 98.4357 188.106 108.443 190.286 112.037C192.466 115.632 196.321 121.659 194.522 123.202C194.289 123.402 194.036 123.578 193.767 123.726C192.108 124.643 190.056 124.104 186.944 120.894C183.353 117.171 182.964 110.887 182.964 110.887L183.862 94.7204C183.862 94.7204 180.4 82.5296 177.073 80.0929L178.612 74.5746L178.797 74.7028C179.807 75.3893 184.854 78.6143 191.093 79.0254C191.858 79.0734 192.589 79.3567 193.186 79.8364C194.949 81.332 196.443 83.118 197.603 85.1171C200.425 89.7377 207.354 89.2247 207.354 89.2247C209.015 88.6948 210.637 88.0495 212.208 87.2935C213.374 86.6975 214.324 86.045 214.471 85.449C214.471 85.449 214.471 85.566 214.471 85.7734C214.584 87.3312 215.15 94.2074 218.9 92.28Z" fill="#CED2DF"/>
<path opacity="0.1" d="M177.186 68.351H167.756C167.963 69.8503 168.023 71.3663 167.933 72.8773C169.373 73.8902 171.061 74.4921 172.817 74.6183C174.572 74.7446 176.329 74.3905 177.899 73.5939C176.994 71.9192 176.443 70.0181 177.186 68.351Z" fill="black"/>
<path d="M173.478 74.4425C178.651 74.4425 182.844 70.2494 182.844 65.0769C182.844 59.9043 178.651 55.7112 173.478 55.7112C168.306 55.7112 164.112 59.9043 164.112 65.0769C164.112 70.2494 168.306 74.4425 173.478 74.4425Z" fill="#EC8C9C"/>
<path opacity="0.1" d="M171.532 63.4097C172.577 63.2853 173.621 62.9156 174.651 63.1231C175.587 63.3117 176.382 63.9567 177.318 64.1528C179.121 64.53 180.796 63.2023 182.157 61.9651L185.099 59.287C185.752 58.6948 186.423 58.0725 186.759 57.2577C187.095 56.443 186.978 55.3718 186.261 54.8588C185.186 54.1044 183.334 54.8588 182.557 53.7876C182.206 53.3048 182.259 52.656 182.078 52.0789C181.701 50.9247 180.403 50.2948 179.189 50.2797C177.974 50.2646 176.812 50.7097 175.651 51.0341C173.203 51.744 170.644 51.9884 168.107 51.7545C167.422 51.6291 166.718 51.6536 166.044 51.8262C165.628 52.0034 165.261 52.2756 164.97 52.6208C164.679 52.9661 164.473 53.3747 164.369 53.814C163.788 55.8659 164.78 59.1739 165.776 61.0108C166.772 62.8477 169.544 63.6549 171.532 63.4097Z" fill="black"/>
<path d="M171.532 63.1533C172.577 63.0288 173.621 62.6591 174.651 62.8666C175.587 63.0552 176.382 63.7002 177.318 63.8963C179.121 64.2735 180.796 62.9458 182.157 61.7086L185.099 59.0305C185.752 58.4383 186.423 57.816 186.759 57.0012C187.095 56.1865 186.978 55.1153 186.261 54.6023C185.186 53.8479 183.334 54.6023 182.557 53.5311C182.206 53.0483 182.259 52.3995 182.078 51.8224C181.701 50.6682 180.403 50.0383 179.189 50.0232C177.974 50.0081 176.812 50.4532 175.651 50.7776C173.203 51.4875 170.644 51.7319 168.107 51.498C167.422 51.3726 166.718 51.3971 166.044 51.5697C165.628 51.7469 165.261 52.0191 164.97 52.3643C164.679 52.7096 164.473 53.1182 164.369 53.5575C163.788 55.6094 164.78 58.9174 165.776 60.7543C166.772 62.5912 169.544 63.3796 171.532 63.1533Z" fill="#88455E"/>
<path opacity="0.1" d="M155.196 103.637C155.196 103.637 157.247 103.894 158.273 105.176C159.299 106.459 161.095 106.843 161.095 106.843" fill="black"/>
<path opacity="0.1" d="M136.717 86.6976C136.717 86.6976 138.392 90.4356 137.358 90.8128C136.325 91.19 136.717 93.8907 136.717 93.8907" fill="black"/>
<g opacity="0.1">
<path opacity="0.1" d="M137.294 85.4152C137.294 85.4152 148.199 83.235 148.576 83.235C150.334 83.235 153.163 80.7757 154.781 79.2217C155.273 78.7502 155.878 78.4138 156.538 78.2448H156.399C155.866 78.2281 155.335 78.3175 154.837 78.5079C154.339 78.6983 153.884 78.9858 153.498 79.3537C151.88 80.9077 149.047 83.367 147.293 83.367C146.988 83.367 140.01 84.7513 137.177 85.3134L137.294 85.4152Z" fill="black"/>
<path opacity="0.1" d="M167.59 75.8874V75.4083C164.967 76.7459 162.144 77.6491 159.231 78.0826C162.121 77.8255 164.947 77.0833 167.59 75.8874Z" fill="black"/>
<path opacity="0.1" d="M154.106 125.446C154.106 125.446 152.567 120.441 153.728 117.876C154.89 115.311 156.293 103.505 156.293 103.505L153.479 94.7808H148.074L147.746 94.909H152.178L154.988 103.637C154.988 103.637 153.577 115.443 152.423 118.008C151.269 120.573 152.8 125.578 152.8 125.578L162.936 125.201V125.122L154.106 125.446Z" fill="black"/>
</g>
<g opacity="0.1">
<path opacity="0.1" d="M194.65 121.15C194.417 121.351 194.164 121.526 193.896 121.675C192.236 122.591 190.184 122.052 187.072 118.842C184.221 115.888 183.391 111.298 183.168 109.559L183.093 110.887C183.093 110.887 183.47 117.175 187.072 120.894C190.184 124.115 192.236 124.643 193.896 123.727C194.164 123.578 194.417 123.403 194.65 123.202C195.189 122.738 195.219 121.867 194.937 120.781C194.866 120.922 194.769 121.047 194.65 121.15Z" fill="black"/>
<path opacity="0.1" d="M217.085 92.4724L213.453 96.6706C213.146 97.0248 212.778 97.3211 212.367 97.5457C211.839 97.8319 211.254 97.9932 210.654 98.0171C208.561 98.1039 204.925 98.1303 201.854 97.5306C197.686 96.7196 194.559 94.8638 192.202 95.9237C191.933 96.041 191.679 96.1918 191.448 96.3726C191.448 96.3726 189.377 102.838 189.694 107.239C189.939 103.124 191.448 98.4245 191.448 98.4245C191.679 98.2437 191.933 98.0929 192.202 97.9756C194.563 96.9157 197.686 98.7715 201.854 99.5825C204.925 100.178 208.557 100.152 210.654 100.069C211.254 100.045 211.839 99.8839 212.367 99.5976C212.777 99.3764 213.145 99.0839 213.453 98.7338L219.039 92.2876C218.75 92.4676 218.423 92.578 218.084 92.6101C217.745 92.6421 217.403 92.595 217.085 92.4724Z" fill="black"/>
</g>
<path d="M53.0482 138.675C53.093 138.718 53.1506 138.746 53.2124 138.754C53.2742 138.762 53.337 138.75 53.3915 138.72C53.2754 138.722 53.1598 138.707 53.0482 138.675Z" fill="url(#paint1_linear)"/>
<path d="M91.4879 76.1927C90.809 75.9966 89.8396 75.676 88.6741 75.2686C89.8853 73.7104 90.7716 71.925 91.2805 70.0181L91.1824 70.0558C91.2164 69.9389 91.2503 69.8257 91.2805 69.705C89.0437 70.6141 86.5694 69.0751 84.9927 67.0986C83.416 65.1221 82.3524 62.6704 80.6248 60.8523C79.9049 60.1291 79.1306 59.462 78.3089 58.857C77.7996 58.4798 77.2527 58.0536 76.6304 58.0347C75.6233 58.0045 74.8349 58.9928 73.8655 59.2832C73.2277 59.4268 72.5635 59.4021 71.9381 59.2115C69.4373 58.6382 67.0346 57.5783 64.481 57.2992C63.1148 57.1304 61.7281 57.2868 60.4337 57.7556C59.1513 58.2422 58.5666 59.2115 57.5294 59.9886C56.3978 60.8222 54.1874 60.8033 52.871 60.9504C51.2736 61.1329 49.6651 61.1997 48.0581 61.1503C47.1345 61.0702 46.2046 61.1044 45.2895 61.2522C43.3771 61.6708 41.8419 63.1909 40.4086 64.6469C40.0174 64.9763 39.7358 65.417 39.6014 65.9105C39.583 66.0494 39.583 66.1902 39.6014 66.3292C39.587 66.7094 39.6525 67.0885 39.7938 67.4419C40.235 68.7511 40.8585 69.9917 41.6458 71.127C42.2304 71.9644 42.9132 72.7527 43.2451 73.7448C43.4024 74.2324 43.4851 74.7411 43.4903 75.2535C43.474 75.7976 43.4173 76.3398 43.3205 76.8754C43.0674 78.3564 42.6512 79.8049 42.0796 81.1943C41.7247 81.9075 41.4805 82.6707 41.3554 83.4574C41.3446 83.6182 41.3446 83.7795 41.3554 83.9403C41.2611 86.4297 43.7732 88.2214 44.2597 90.6958C44.2997 90.901 44.3237 91.1091 44.3314 91.3181C44.2786 92.8608 43.3997 94.3696 42.1022 94.9693C42.2154 95.0146 42.3323 95.0523 42.4492 95.09C42.3376 95.1601 42.2217 95.2231 42.1022 95.2786C42.3398 95.3692 42.5812 95.4484 42.8264 95.5125C41.3518 96.7969 40.1124 98.3286 39.1639 100.039C34.7998 108.164 5.24301 124.077 5.24301 124.077L5.68055 124.326L5.32599 124.556C2.76863 126.257 -3.2325 131.217 2.19152 137.49C2.19152 137.49 6.42739 130.806 9.39589 127.959C9.5279 127.83 9.65992 127.713 9.77308 127.604C9.83829 127.704 9.88202 127.817 9.9015 127.935C9.92097 128.054 9.91577 128.174 9.88624 128.29L29.3192 117.371C29.3192 117.371 36.2256 112.535 38.153 111.445C39.5096 110.6 40.986 109.964 42.5322 109.559L42.3059 109.653C43.0325 109.454 43.7816 109.347 44.5351 109.337C47.9751 109.389 51.7017 111.909 52.9276 121.886C54.5722 135.246 53.8102 137.656 53.2822 137.984C53.2171 137.979 53.1526 137.968 53.0898 137.95C53.1061 137.965 53.1238 137.977 53.1426 137.988C53.0711 137.983 53.0003 137.97 52.9314 137.95C52.9694 137.985 53.0157 138.01 53.0659 138.022C53.1161 138.034 53.1684 138.032 53.2181 138.018C53.2537 138.029 53.2913 138.032 53.3283 138.028C53.3654 138.023 53.401 138.011 53.4331 137.992C53.5197 137.997 53.6066 137.997 53.6933 137.992C53.6933 138.115 53.6845 138.241 53.6669 138.369C53.6405 138.369 53.5123 138.441 53.6669 138.448C53.6254 139.203 53.6292 140.021 53.6669 140.877C51.9582 140.972 50.2496 141.074 48.7634 141.164L48.8954 140.459L48.9558 140.142C50.2684 140.036 51.5131 139.651 51.6602 138.588C51.9809 136.249 48.771 135.001 46.0401 134.846C43.3092 134.691 26.9315 135.782 26.9315 135.782C26.9315 135.782 24.476 138.961 32.265 139.931C32.4964 140.051 32.7365 140.177 32.9855 140.308C36.037 142.047 40.1748 145.249 42.1588 146.826L42.4341 147.044L41.544 147.769C46.3607 148.859 51.019 167.266 53.5877 175.681C56.1564 184.096 61.7765 183.791 66.4349 182.542C70.799 181.373 71.3384 168.699 71.41 167.107V166.945L79.1726 176.533L79.761 177.261C79.9874 177.38 80.2112 177.49 80.4324 177.593C86.3091 180.388 92.8006 175.028 90.9561 168.918C89.089 162.758 86.1922 153.649 84.2609 149.798C82.6428 146.573 80.5531 141.217 79.2858 137.864C79.4503 137.798 79.6104 137.721 79.7648 137.634C79.7648 137.634 79.7346 137.483 79.6856 137.207L79.7648 137.166C79.7648 137.166 77.8789 127.464 77.7959 120.569C77.7959 120.449 77.7959 120.323 77.7959 120.192C77.7959 120.117 77.7959 120.041 77.7959 119.97C79.199 119.649 80.0892 119.525 80.0892 119.525L80.1156 119.223L79.9534 119.257L80.7342 110.321C80.7342 110.321 83.6009 104.222 81.4056 101.683C80.7382 100.941 80.2926 100.026 80.1194 99.043C79.7422 96.7082 80.1194 92.8118 85.2303 89.5755C93.0986 84.5852 96.1689 80.5229 96.1689 80.5229C96.1689 80.5229 96.3047 77.611 91.4879 76.1927ZM75.8609 82.3938V78.2635C77.3206 78.1919 78.8105 78.3616 80.2778 78.2635C80.9981 78.2132 81.7118 78.0932 82.4089 77.9052L82.7635 78.1504C80.6168 79.8015 78.3034 81.2237 75.8609 82.3938ZM53.55 147.135C54.1271 147.535 54.708 147.95 55.2775 148.368C55.6321 150.405 55.9452 151.842 55.9678 151.944C55.3168 150.268 54.5072 148.657 53.55 147.135Z" fill="url(#paint2_linear)"/>
<path d="M66.02 143.74L65.6805 145.585L65.4202 146.996L64.945 149.576L60.3357 152.801C60.3357 152.801 59.9208 152.446 59.2343 151.884C57.3483 150.33 53.3765 147.177 50.4608 145.472C49.7115 144.993 48.9007 144.619 48.0505 144.359L66.02 143.74Z" fill="#FFBDC6"/>
<path opacity="0.1" d="M66.0198 143.74L65.6804 145.585C64.6644 145.641 63.6452 145.589 62.6402 145.43L51.8864 145.585C51.3772 145.555 50.902 145.513 50.4569 145.468C49.7076 144.989 48.8968 144.615 48.0466 144.355L66.0198 143.74Z" fill="black"/>
<path d="M62.6402 145.128C62.6402 145.128 68.019 146.049 68.3245 143.744C68.63 141.439 65.5597 140.225 62.9533 140.051C60.3469 139.878 44.667 140.979 44.667 140.979C44.667 140.979 41.9022 144.664 51.8865 145.279L62.6402 145.128Z" fill="#7679B4"/>
<path opacity="0.1" d="M66.02 143.74L65.6805 145.585L65.4202 146.996L64.945 149.576L60.3357 152.801C60.3357 152.801 59.9208 152.446 59.2343 151.884C57.3483 150.33 53.3765 147.177 50.4608 145.472C49.7115 144.993 48.9007 144.619 48.0505 144.359L66.02 143.74Z" fill="black"/>
<path opacity="0.1" d="M66.0198 143.74L65.6804 145.585C64.6644 145.641 63.6452 145.589 62.6402 145.43L51.8864 145.585C51.3772 145.555 50.902 145.513 50.4569 145.468C49.7076 144.989 48.8968 144.615 48.0466 144.355L66.0198 143.74Z" fill="black"/>
<path opacity="0.1" d="M62.6402 145.128C62.6402 145.128 68.019 146.049 68.3245 143.744C68.63 141.439 65.5597 140.225 62.9533 140.051C60.3469 139.878 44.667 140.979 44.667 140.979C44.667 140.979 41.9022 144.664 51.8865 145.279L62.6402 145.128Z" fill="black"/>
<path d="M74.3897 69.3844H46.2776V102.721H74.3897V69.3844Z" fill="#A66477"/>
<path opacity="0.1" d="M74.3897 69.3844H46.2776V102.721H74.3897V69.3844Z" fill="black"/>
<path d="M13.3262 126.457C12.8622 126.574 12.2738 127.019 11.6137 127.668C8.77346 130.475 4.72242 137.057 4.72242 137.057C-0.467741 130.878 5.27689 125.993 7.73996 124.315C8.33592 123.908 8.73574 123.689 8.73574 123.689L13.3262 126.457Z" fill="#FFBDC6"/>
<path d="M65.7144 79.9081C65.7144 79.9081 67.0987 89.5868 71.8588 91.8915C76.619 94.1961 65.7144 98.4961 65.7144 98.4961L50.8115 92.9665C50.8115 92.9665 59.2606 90.2017 57.5708 82.0581L65.7144 79.9081Z" fill="#FFBDC6"/>
<path d="M49.7516 138.131L49.4122 139.976L49.1519 141.387L48.6767 143.967L44.0674 147.192C44.0674 147.192 43.6525 146.837 42.966 146.275C41.08 144.721 37.1082 141.568 34.1925 139.863C33.4432 139.384 32.6324 139.01 31.7822 138.75L49.7516 138.131Z" fill="#FFBDC6"/>
<path opacity="0.1" d="M49.7516 138.131L49.4122 139.976C48.3962 140.032 47.377 139.981 46.372 139.821L35.6183 139.976C35.109 139.946 34.6338 139.904 34.1887 139.859C33.4394 139.381 32.6286 139.006 31.7784 138.746L49.7516 138.131Z" fill="black"/>
<path d="M46.3569 139.516C46.3569 139.516 51.7357 140.436 52.0412 138.131C52.3467 135.827 49.2764 134.597 46.6624 134.446C44.0485 134.295 28.3799 135.367 28.3799 135.367C28.3799 135.367 25.6151 139.052 35.5994 139.667L46.3569 139.516Z" fill="#7679B4"/>
<path opacity="0.1" d="M49.1369 141.391L48.6616 143.971L44.0523 147.196C44.0523 147.196 43.6374 146.841 42.9509 146.279L49.0464 141.281L49.1369 141.391Z" fill="black"/>
<path d="M79.5498 176.56C79.3385 176.457 79.1248 176.347 78.9085 176.232L78.3465 175.515L70.9234 166.085V166.251C70.8743 167.816 70.3387 180.302 66.167 181.452C61.7123 182.682 56.3336 182.987 53.8781 174.693C51.4226 166.398 46.9641 148.27 42.3549 147.195L49.1896 141.587C49.1896 141.587 53.7159 146.867 55.5641 151.952C55.4962 151.627 52.3693 137.026 54.9493 134.446H77.3771C77.3771 134.446 80.8322 144.306 83.2161 149.195C85.0643 152.989 87.8367 161.959 89.6283 168.028C91.4011 174.033 85.2076 179.313 79.5498 176.56Z" fill="#7679B4"/>
<path opacity="0.1" d="M78.9236 137.207C75.4648 139.255 60.2564 138.422 55.3001 138.09L53.9535 137.992C53.8064 137.992 53.9762 137.909 53.9762 137.909L54.1157 136.513L57.8009 127.144L77.5431 115.707C77.1433 116.911 77.0075 118.755 77.0415 120.871C77.1395 127.653 78.9236 137.207 78.9236 137.207Z" fill="black"/>
<path d="M78.9236 136.751C75.4648 138.799 60.2564 137.966 55.3001 137.634L53.9535 137.535H53.731L53.9761 137.471L55.1907 137.151L57.8009 126.703L77.5431 115.259C77.1433 116.462 77.0075 118.306 77.0414 120.422C77.1395 127.193 78.9236 136.751 78.9236 136.751Z" fill="#F2F1F2"/>
<path opacity="0.1" d="M77.0415 120.407C73.0282 121.331 64.1944 124.051 60.7997 130.591C58.5365 134.959 56.6506 136.834 55.304 137.618L53.9574 137.52L53.98 137.437L55.1946 137.117L57.8048 126.669L77.547 115.225C77.1396 116.462 77.0076 118.291 77.0415 120.407Z" fill="black"/>
<path opacity="0.1" d="M8.71686 123.693L13.3261 126.457C12.8622 126.574 12.2738 127.019 11.6137 127.668C11.2365 126.537 8.81493 124.982 7.72107 124.319C8.31703 123.911 8.71686 123.693 8.71686 123.693Z" fill="black"/>
<path opacity="0.1" d="M53.1463 137.713C53.0949 137.741 53.0356 137.753 52.9773 137.745C52.9189 137.738 52.8644 137.712 52.8219 137.671C52.9274 137.701 53.0367 137.715 53.1463 137.713Z" fill="black"/>
<path d="M63.5606 91.2767C63.5606 91.2767 59.4115 91.7369 56.4921 88.6665C56.4921 88.6665 44.2032 92.2008 40.0541 100.19C35.9049 108.179 7.63818 123.847 7.63818 123.847C7.63818 123.847 12.5417 126.612 12.0928 127.996L30.6808 117.243C30.6808 117.243 37.2855 112.479 39.1299 111.404C40.9744 110.329 51.1133 103.724 53.2633 121.697C55.4133 139.67 53.2633 137.539 53.2633 137.539C53.2633 137.539 56.3374 138.614 60.8072 129.995C65.2769 121.377 79.0896 119.396 79.0896 119.396L79.844 110.344C79.844 110.344 82.5862 104.339 80.4853 101.834C79.8446 101.097 79.4191 100.198 79.2556 99.2354C78.9048 96.9346 79.2556 93.0985 84.1591 89.9113C91.7029 85.0078 94.6073 81.002 94.6073 81.002C94.6073 81.002 94.762 78.0825 90.1527 76.702C85.5434 75.3215 66.8007 67.7927 66.8007 67.7927L66.1859 70.4029L80.9341 80.8511C80.9341 80.8511 73.56 86.8409 67.7324 86.69C67.7098 86.6636 68.7848 91.1221 63.5606 91.2767Z" fill="#565388"/>
<path opacity="0.1" d="M66.4084 84.1213C66.0452 82.8834 65.7617 81.6235 65.5597 80.3494L57.4162 82.5144C57.7727 84.0684 57.7088 85.6893 57.2313 87.2105C58.8956 87.6545 60.6539 87.5979 62.2862 87.0478C63.9185 86.4976 65.3524 85.4784 66.4084 84.1175V84.1213Z" fill="black"/>
<path d="M59.6454 87.0521C64.4825 87.0521 68.4038 83.1308 68.4038 78.2937C68.4038 73.4565 64.4825 69.5353 59.6454 69.5353C54.8082 69.5353 50.887 73.4565 50.887 78.2937C50.887 83.1308 54.8082 87.0521 59.6454 87.0521Z" fill="#FFBDC6"/>
<path opacity="0.1" d="M64.2999 58.3742C66.7291 58.6496 69.0412 59.6944 71.4326 60.2602C72.0302 60.4476 72.6668 60.4723 73.2771 60.3318C74.205 60.0452 74.9594 59.072 75.9174 59.1022C76.5096 59.1022 77.049 59.5246 77.5243 59.9132C78.3116 60.5105 79.0518 61.1675 79.7384 61.8783C81.3867 63.67 82.4127 66.084 83.9177 68.0303C85.4227 69.9766 87.7952 71.4929 89.9339 70.599C88.4817 76.2569 83.714 80.5833 78.5616 80.9341C76.5059 81.0736 74.4125 80.6474 72.4096 81.2509C71.9132 81.4533 71.3894 81.5804 70.8555 81.6281C69.724 81.6281 68.7885 80.5757 68.0719 79.5535C66.3971 77.1471 65.0543 74.4162 63.1684 72.2247C62.546 71.5005 61.8105 70.8102 60.9316 70.6782C60.0528 70.5462 59.2418 70.9649 58.4572 71.3722C57.1635 72.0436 55.8395 72.7377 54.8362 73.8843C53.8329 75.031 53.1992 76.7472 53.6141 78.3013C53.8366 79.1386 54.3496 79.893 54.3685 80.7719C54.3685 82.1675 53.1539 83.1897 52.9087 84.5438C52.8547 85.1154 52.8346 85.6898 52.8484 86.2638C52.739 88.1271 51.5244 89.6585 50.2495 90.824C49.7554 91.2804 49.2047 91.767 49.0614 92.4724C48.9633 92.9514 49.0614 93.4606 48.9973 93.9472C48.8124 95.158 47.6054 95.769 46.538 95.9274C45.2913 96.1102 44.0184 95.9592 42.849 95.4899C44.3578 94.7845 45.2593 92.7741 44.9123 90.9636C44.437 88.4704 41.9325 86.6825 42.1437 84.1402C42.2618 83.3617 42.4957 82.6052 42.8377 81.8959C43.3843 80.5243 43.7814 79.0979 44.0221 77.6412C44.2689 76.52 44.2443 75.3562 43.9504 74.2464C43.6298 73.2695 42.9773 72.4925 42.419 71.6665C41.663 70.5434 41.0664 69.321 40.6462 68.0341C40.494 67.6537 40.4357 67.2423 40.4765 66.8346C40.5981 66.3537 40.8609 65.9202 41.2309 65.5899C42.6039 64.1528 44.0749 62.6553 45.9005 62.2404C46.7728 62.0951 47.66 62.0609 48.5409 62.1386C50.0788 62.1875 51.6182 62.122 53.1464 61.9424C54.4062 61.7953 56.5411 61.8142 57.6048 60.9919C58.5968 60.2375 59.1588 59.2757 60.3847 58.7929C61.6358 58.3349 62.9803 58.1911 64.2999 58.3742Z" fill="black"/>
<path opacity="0.1" d="M69.1696 148.81C69.1696 148.81 74.239 158.794 72.7038 161.868L69.1696 148.81Z" fill="black"/>
<path opacity="0.1" d="M78.3616 175.515L70.9384 166.085V166.251C70.9384 166.251 70.5084 163.203 71.9229 164.229C75.0196 166.47 79.9759 170.144 80.0816 170.777C80.1872 171.411 79.0782 173.953 78.3616 175.515Z" fill="black"/>
<g opacity="0.1">
<path opacity="0.1" d="M67.8569 86.6637C67.8569 86.6637 68.483 89.2587 66.4575 90.5563C69.5769 90.0207 69.7127 87.5953 69.6184 86.5392C69.0362 86.6334 68.4466 86.6751 67.8569 86.6637Z" fill="black"/>
<path opacity="0.1" d="M9.48632 123.232C9.48632 123.232 37.7531 107.564 41.9022 99.5749C44.8782 93.8415 52.0487 90.4053 55.8583 88.9192C53.0784 89.8509 43.724 93.4229 40.2086 100.19C36.0595 108.179 7.79272 123.847 7.79272 123.847L9.48632 123.232Z" fill="black"/>
<path opacity="0.1" d="M73.3563 85.4453C78.1655 83.9366 82.7635 80.2137 82.7635 80.2137L68.0153 69.7655L68.351 68.3321L66.9403 67.7664L66.3254 70.3765L81.0736 80.8247C78.707 82.6851 76.1138 84.2377 73.3563 85.4453Z" fill="black"/>
<path opacity="0.1" d="M73.4506 120.849C75.335 120.205 77.2689 119.717 79.2329 119.389L79.2593 119.091C77.2805 119.525 75.3384 120.113 73.4506 120.849Z" fill="black"/>
<path opacity="0.1" d="M55.5754 136.943H55.4397C55.3882 136.972 55.329 136.983 55.2706 136.976C55.2123 136.969 55.1578 136.943 55.1153 136.902C55.2208 136.931 55.3301 136.945 55.4397 136.943C55.9451 136.649 56.7033 134.356 55.1153 121.079C53.4179 106.904 46.7567 108.017 43.1093 109.646C46.8359 108.62 51.9657 109.506 53.4254 121.693C55.0134 134.971 54.2553 137.268 53.7498 137.558C54.405 137.534 55.039 137.32 55.5754 136.943Z" fill="black"/>
<path opacity="0.1" d="M53.7499 137.562C53.6404 137.564 53.5311 137.55 53.4255 137.521C53.4681 137.561 53.5225 137.587 53.5809 137.595C53.6393 137.602 53.6985 137.591 53.7499 137.562Z" fill="black"/>
</g>
<path d="M64.2999 58.0762C66.7291 58.3516 69.0412 59.3964 71.4326 59.9622C72.0302 60.1496 72.6668 60.1743 73.2771 60.0339C74.205 59.7472 74.9594 58.7741 75.9174 58.8042C76.5096 58.8042 77.049 59.2267 77.5243 59.6152C78.3116 60.2125 79.0518 60.8695 79.7384 61.5804C81.3867 63.372 82.4127 65.786 83.9177 67.7324C85.4227 69.6787 87.7952 71.195 89.9339 70.301C88.4817 75.9589 83.714 80.2853 78.5616 80.6361C76.5059 80.7756 74.4125 80.3494 72.4096 80.9529C71.9132 81.1553 71.3894 81.2824 70.8555 81.3301C69.724 81.3301 68.7885 80.2778 68.0719 79.2556C66.3971 76.8491 65.0543 74.1182 63.1684 71.9267C62.546 71.2025 61.8105 70.5123 60.9316 70.3802C60.0528 70.2482 59.2418 70.6669 58.4572 71.0743C57.1635 71.7457 55.8395 72.4397 54.8362 73.5864C53.8329 74.733 53.1992 76.4493 53.6141 78.0033C53.8366 78.8407 54.3496 79.595 54.3685 80.4739C54.3685 81.8695 53.1539 82.8917 52.9087 84.2458C52.8547 84.8175 52.8346 85.3918 52.8484 85.9658C52.739 87.8291 51.5244 89.3605 50.2495 90.5261C49.7554 90.9825 49.2047 91.469 49.0614 92.1744C48.9633 92.6534 49.0614 93.1626 48.9973 93.6492C48.8124 94.86 47.6054 95.471 46.538 95.6295C45.2913 95.8122 44.0184 95.6612 42.849 95.1919C44.3578 94.4866 45.2593 92.4761 44.9123 90.6656C44.437 88.1724 41.9325 86.3845 42.1437 83.8422C42.2618 83.0637 42.4957 82.3072 42.8377 81.5979C43.3843 80.2264 43.7814 78.7999 44.0221 77.3432C44.2689 76.2221 44.2443 75.0582 43.9504 73.9485C43.6298 72.9716 42.9773 72.1945 42.419 71.3685C41.663 70.2455 41.0664 69.023 40.6462 67.7361C40.494 67.3558 40.4357 66.9443 40.4765 66.5367C40.5981 66.0558 40.8609 65.6223 41.2309 65.2919C42.6039 63.8548 44.0749 62.3574 45.9005 61.9425C46.7728 61.7971 47.66 61.7629 48.5409 61.8406C50.0788 61.8895 51.6182 61.824 53.1464 61.6445C54.4062 61.4974 56.5411 61.5162 57.6048 60.6939C58.5968 59.9396 59.1588 58.9777 60.3847 58.4949C61.6358 58.0369 62.9803 57.8931 64.2999 58.0762Z" fill="#A66477"/>
<path d="M314.39 38.4171C314.39 38.368 314.39 38.3228 314.39 38.2775C314.39 38.2322 314.39 38.1794 314.367 38.1342H314.307C314.307 38.0323 314.307 37.9305 314.307 37.8211C314.156 34.3245 309.32 26.8825 307.381 29.0552C305.684 30.9638 308.245 35.7918 309.55 37.9644L309.667 38.1606L309.603 38.1191C309.603 38.1191 304.205 54.2176 303.568 54.8438C302.93 55.4699 298.487 68.1285 292.629 69.5543C291.471 69.8296 290.51 70.0786 289.702 70.3086L289.766 70.0936C290.144 68.8602 290.608 67.6947 290.796 66.3217C290.985 64.9487 290.796 63.2853 290.102 62.6177C289.763 62.2858 289.348 62.2405 289.069 61.7124C288.887 61.2493 288.79 60.7575 288.782 60.2602L288.284 54.1573L288.631 54.0517C290.728 53.3803 292.761 51.7885 292.999 49.6461C292.926 49.6738 292.852 49.6977 292.776 49.7177C292.804 49.5932 292.825 49.4673 292.841 49.3405C291.079 50.0346 289.446 48.209 287.748 47.3905C284.953 46.0213 281.759 47.3112 278.873 47.6243C275.603 47.9826 272.499 46.6248 269.157 46.8699C267.339 47.0095 265.317 48.2429 265.415 50.0346C265.472 51.019 266.169 51.8526 266.456 52.7956C267.18 55.0776 265.57 57.3672 264.159 59.3135C263.231 60.5922 262.341 62.15 262.182 63.6512C258.935 60.2565 255.423 56.3337 255.016 54.8589L245.62 38.7603C245.62 38.7603 245.397 38.9979 245.039 39.3487C244.982 39.1752 244.915 38.9715 244.839 38.7679C243.64 35.4071 240.245 27.2635 235.941 28.7572C231.637 30.2509 237.725 38.5981 240.373 41.9249L240.75 42.3851C240.528 42.4397 240.295 42.4292 240.079 42.3549L250.557 60.3281C250.557 60.3281 252.462 63.7681 254.209 64.7036C254.209 64.7036 267.225 81.1152 267.384 84.3968C267.542 87.6783 273.238 96.433 273.238 96.433C273.238 96.433 275.143 110.657 271.808 113.158H271.85H271.876H271.918H271.955H272.031H272.08H272.129H272.193H272.246H272.321H272.359C272.201 113.312 272.038 113.482 271.872 113.667C269.402 116.405 266.245 122.274 270.56 132.255C276.908 146.965 277.862 152.729 277.862 152.729C277.862 152.729 265.792 153.355 263.416 153.823C261.311 154.238 253.13 154.528 251.259 154.577C250.591 153.8 248.619 152.08 245.956 154.577C242.621 157.704 240.241 168.156 240.241 168.156C240.241 168.156 238.97 176.598 243.259 174.406C243.259 174.406 248.339 167.371 249.765 167.058C250.474 166.904 251.225 165.859 251.798 164.852L251.828 164.871C251.862 164.871 252.002 164.795 252.228 164.705C253.284 164.286 256.193 163.279 258.486 163.781C259.742 164.056 265.128 164.12 270.775 164.105C269.5 167.16 267.214 175.044 267.214 175.044C267.214 175.044 266.26 182.395 269.428 182.093C271.691 181.871 275.162 176.088 276.972 172.788C278.285 171.826 282.045 168.379 284.825 168.639L303.557 161.45C303.557 161.45 308 158.949 305.62 150.666C303.734 144.08 298.366 130.599 296.247 125.345L296.182 125.209C295.669 123.938 295.36 123.183 295.36 123.183C294.489 120.785 293.918 118.288 293.659 115.749C293.64 115.549 293.625 115.345 293.61 115.145C293.872 115.035 294.12 114.892 294.346 114.719C294.346 114.719 292.599 97.0591 294.346 95.1807L294.376 95.1467V95.1241L294.406 95.0864L294.474 94.9996L294.557 94.894C294.651 94.7695 294.764 94.6149 294.892 94.4263C295.892 92.9628 297.755 89.6209 297.22 85.6754C297.197 85.5044 297.169 85.3322 297.137 85.1587C296.932 84.0887 296.565 83.056 296.05 82.0959C295.975 81.6962 295.928 81.2915 295.911 80.8851C295.911 80.655 295.911 80.4023 295.911 80.1307V80.0855C295.911 80.0125 295.911 79.9396 295.911 79.8667V79.8139C295.911 79.6366 295.941 79.4367 295.967 79.2707V79.2028C295.967 79.1349 295.979 79.0658 296.001 78.9954V78.9086C296.001 78.8407 296.032 78.7728 296.047 78.7049V78.6333C296.069 78.5427 296.092 78.4522 296.122 78.3617V78.3164C296.145 78.241 296.17 78.1668 296.198 78.0939L296.232 78.0071L296.307 77.8261L296.345 77.7355C296.375 77.6677 296.409 77.5998 296.443 77.5319L296.469 77.4753C296.514 77.3923 296.562 77.3106 296.612 77.2301L296.654 77.166L296.778 76.9887L296.839 76.9095L296.971 76.7511L297.031 76.6832C297.099 76.6115 297.167 76.5399 297.242 76.472C299.306 74.586 308.513 60.6865 308.513 60.6865C308.513 60.6865 310.735 57.5595 310.735 55.5303C310.859 55.485 314.786 42.3964 314.39 38.4171ZM289.672 155.252C289.446 153.11 289.22 150.454 289.012 147.708L292.603 153.306C292.603 153.306 292.263 155.011 289.672 155.252Z" fill="url(#paint3_linear)"/>
<path d="M252.232 154.068C252.232 154.068 250.082 150.673 246.853 153.762C243.624 156.851 241.324 167.126 241.324 167.126C241.324 167.126 240.094 175.424 244.243 173.271C244.243 173.271 249.147 166.357 250.542 166.051C251.938 165.746 253.462 161.902 253.462 161.902L252.232 154.068Z" fill="#493545"/>
<path d="M275.275 162.362C275.275 162.362 272.355 160.978 271.435 162.057C270.515 163.135 267.44 173.885 267.44 173.885C267.44 173.885 266.52 180.954 269.59 180.645C272.661 180.335 278.04 169.269 278.04 169.269L275.275 162.362Z" fill="#493545"/>
<path opacity="0.05" d="M275.275 162.362C275.275 162.362 272.355 160.978 271.435 162.057C270.515 163.135 267.44 173.885 267.44 173.885C267.44 173.885 266.52 180.954 269.59 180.645C272.661 180.335 278.04 169.269 278.04 169.269L275.275 162.362Z" fill="black"/>
<path d="M285.414 141.47L292.018 151.763C292.018 151.763 291.558 154.068 287.564 153.608L273.89 162.211C273.89 162.211 272.702 172.686 276.501 171.735C277.115 171.581 281.404 167.126 284.49 167.435L302.621 160.367C302.621 160.367 306.921 157.908 304.617 149.768C302.312 141.628 294.693 122.753 294.693 122.753L282.649 129.49L285.414 141.47Z" fill="#3E3D77"/>
<path opacity="0.05" d="M285.414 141.47L292.018 151.763C292.018 151.763 291.558 154.068 287.564 153.608L273.89 162.211C273.89 162.211 272.702 172.686 276.501 171.735C277.115 171.581 281.404 167.126 284.49 167.435L302.621 160.367C302.621 160.367 306.921 157.908 304.617 149.768C302.312 141.628 294.693 122.753 294.693 122.753L282.649 129.49L285.414 141.47Z" fill="black"/>
<path d="M289.563 156.678C290.483 162.517 285.263 162.977 285.263 162.977C285.263 162.977 261.756 163.437 258.991 162.823C256.227 162.208 252.538 163.898 252.538 163.898C247.774 160.978 251.617 153.759 251.617 153.759C251.617 153.759 261.451 153.453 263.755 153.004C266.06 152.555 277.734 151.918 277.734 151.918C277.734 151.918 276.814 146.234 270.665 131.795C266.49 121.988 269.534 116.217 271.937 113.527C272.55 112.814 273.259 112.189 274.045 111.672L292.942 112.592C292.922 113.545 292.957 114.498 293.048 115.447C293.371 118.705 294.218 121.889 295.556 124.877C294.481 124.877 287.567 131.331 287.567 131.331C287.567 131.331 288.639 150.843 289.563 156.678Z" fill="#3E3D77"/>
<path opacity="0.1" d="M252.998 154.373C252.998 154.373 262.831 154.068 265.136 153.619C267.44 153.17 279.115 152.544 279.115 152.544C279.115 152.544 278.194 146.86 272.046 132.421C267.87 122.614 270.914 116.843 273.317 114.153C273.93 113.44 274.64 112.815 275.426 112.298L292.935 113.15C292.935 112.969 292.935 112.773 292.935 112.603L274.038 111.683C273.252 112.2 272.542 112.825 271.929 113.539C269.538 116.232 266.482 121.999 270.658 131.806C276.821 146.234 277.734 151.918 277.734 151.918C277.734 151.918 266.041 152.533 263.755 152.993C261.469 153.453 251.617 153.747 251.617 153.747C251.617 153.747 247.777 160.971 252.538 163.901C252.538 163.901 252.681 163.833 252.915 163.735C249.75 160.48 252.998 154.373 252.998 154.373Z" fill="black"/>
<path d="M281.11 55.285H271.586V79.4027H281.11V55.285Z" fill="#493545"/>
<path opacity="0.1" d="M281.11 55.285H271.586V79.4027H281.11V55.285Z" fill="black"/>
<path d="M286.556 51.747C286.885 51.8375 287.254 51.8488 287.477 52.3015C287.615 52.6632 287.69 53.0459 287.699 53.433L288.299 60.8864C288.308 61.3743 288.402 61.857 288.578 62.3121C288.831 62.8176 289.25 62.8779 289.578 63.2023C290.238 63.8586 290.43 65.5032 290.249 66.8422C290.068 68.1813 289.612 69.3279 289.253 70.5387C288.74 72.2738 288.401 74.2239 287.681 75.6874C286.96 77.1509 285.651 77.9505 284.806 76.7209C283.961 75.4912 284.075 73.0093 283.916 70.9762C283.652 67.5815 282.328 64.6545 282.238 61.2372C282.162 58.4723 282.905 55.8923 283.369 53.2709C283.701 51.4717 283.72 49.2877 284.203 47.6696C284.606 49.5932 285.376 51.4226 286.556 51.747Z" fill="#493545"/>
<path opacity="0.1" d="M286.556 51.747C286.885 51.8375 287.254 51.8488 287.477 52.3015C287.615 52.6632 287.69 53.0459 287.699 53.433L288.299 60.8864C288.308 61.3743 288.402 61.857 288.578 62.3121C288.831 62.8176 289.25 62.8779 289.578 63.2023C290.238 63.8586 290.43 65.5032 290.249 66.8422C290.068 68.1813 289.612 69.3279 289.253 70.5387C288.74 72.2738 288.401 74.2239 287.681 75.6874C286.96 77.1509 285.651 77.9505 284.806 76.7209C283.961 75.4912 284.075 73.0093 283.916 70.9762C283.652 67.5815 282.328 64.6545 282.238 61.2372C282.162 58.4723 282.905 55.8923 283.369 53.2709C283.701 51.4717 283.72 49.2877 284.203 47.6696C284.606 49.5932 285.376 51.4226 286.556 51.747Z" fill="black"/>
<path d="M246.238 41.1516L242.553 44.2257C242.553 44.2257 242.116 43.7127 241.463 42.8829C238.902 39.6127 233.014 31.4087 237.175 29.9415C241.335 28.4742 244.624 36.4744 245.786 39.7786C246.08 40.616 246.238 41.1516 246.238 41.1516Z" fill="#C77485"/>
<path d="M312.76 40.0766C311.225 42.3812 309.075 40.0766 309.075 40.0766C309.075 40.0766 308.799 39.6654 308.411 39.0016C307.147 36.8629 304.669 32.1216 306.31 30.2432C308.196 28.097 312.869 35.422 313.013 38.8582C313.057 39.2807 312.969 39.7066 312.76 40.0766Z" fill="#C77485"/>
<path d="M274.965 64.9637C274.965 64.9637 278.04 74.7971 277.115 77.7128C276.191 80.6285 283.724 84.0232 283.724 84.0232H292.328C292.328 84.0232 295.402 77.7241 294.632 75.8796C293.863 74.0352 287.258 72.6546 287.258 72.6546C287.258 72.6546 283.418 72.6547 283.573 62.3611L274.965 64.9637Z" fill="#C77485"/>
<path opacity="0.1" d="M246.238 41.1517L242.553 44.2258C242.553 44.2258 242.116 43.7128 241.463 42.883C242.802 42.6453 244.88 40.6915 245.79 39.7787C246.08 40.6161 246.238 41.1517 246.238 41.1517Z" fill="black"/>
<path opacity="0.1" d="M312.76 40.0766C311.225 42.3812 309.075 40.0766 309.075 40.0766C309.075 40.0766 308.8 39.6654 308.411 39.0016L308.46 38.8469C309.456 39.5598 312.553 38.9525 313.013 38.8469C313.06 39.2732 312.971 39.7033 312.76 40.0766Z" fill="black"/>
<path opacity="0.1" d="M293.04 115.443C288.288 117.612 272.846 113.75 271.918 113.52C272.531 112.806 273.241 112.181 274.026 111.664L292.924 112.584C292.907 113.539 292.946 114.493 293.04 115.443Z" fill="black"/>
<path d="M276.964 73.4129C276.964 73.4129 273.279 74.6425 268.055 69.8786C268.055 69.8786 256.362 58.3554 255.608 55.5905L246.555 39.7485C246.555 39.7485 242.715 43.8976 241.177 43.2828L251.315 60.9504C251.315 60.9504 253.16 64.3452 254.85 65.2504C254.85 65.2504 267.448 81.3829 267.599 84.6079C267.75 87.8329 273.276 96.4706 273.276 96.4706C273.276 96.4706 275.12 110.449 271.891 112.909C271.891 112.909 289.864 117.518 293.704 114.444C293.704 114.444 292.014 97.093 293.704 95.241C293.704 95.241 298.928 89.0965 295.394 82.3372C295.394 82.3372 294.64 78.6521 296.624 76.8076C298.608 74.9631 307.532 61.2899 307.532 61.2899C307.532 61.2899 309.682 58.2158 309.682 56.2205C309.682 56.2205 313.677 42.7019 313.077 39.1676C313.077 39.1676 309.543 39.922 308.468 39.1676C308.468 39.1676 303.243 55.0097 302.629 55.6056C302.014 56.2016 297.725 68.664 292.03 70.0483C286.334 71.4326 285.425 72.0436 285.425 72.0436C285.425 72.0436 296.484 78.9576 291.109 82.0279C285.734 85.0983 276.964 73.4129 276.964 73.4129Z" fill="#FFAAC4"/>
<path opacity="0.1" d="M283.946 67.3288C283.764 65.8817 283.689 64.4229 283.724 62.9647L275.12 65.5749C275.346 66.148 275.527 66.7383 275.659 67.3401C276.644 67.7739 277.972 68.7999 279.114 68.7999C280.843 68.8564 282.542 68.3391 283.946 67.3288Z" fill="black"/>
<path d="M278.96 68.3435C283.372 68.3435 286.949 64.7667 286.949 60.3545C286.949 55.9424 283.372 52.3656 278.96 52.3656C274.548 52.3656 270.971 55.9424 270.971 60.3545C270.971 64.7667 274.548 68.3435 278.96 68.3435Z" fill="#C77485"/>
<path opacity="0.1" d="M269.455 48.0467C267.697 48.1825 265.735 49.3971 265.834 51.1585C265.886 52.1279 266.55 52.9464 266.841 53.8743C267.538 56.1186 265.984 58.3705 264.619 60.2866C263.254 62.2027 261.979 64.7412 263.148 66.7705C263.481 67.2591 263.841 67.7288 264.227 68.1774C265.671 70.1275 265.652 72.7603 266.294 75.1027C267.113 78.0994 269.048 80.6685 271.703 82.2821C274.358 83.8956 277.529 84.431 280.567 83.7781C279.423 82.3186 278.853 80.4914 278.964 78.6408C279.05 77.2979 279.484 75.8948 278.964 74.6538C278.292 73.0583 276.323 72.4284 275.309 71.0328C274.294 69.6372 274.362 67.7022 274.852 66.0388C275.343 64.3754 276.191 62.8326 276.599 61.1353C276.699 60.64 276.825 60.1503 276.976 59.668C277.685 57.6538 279.805 56.4845 281.879 55.9828C283.954 55.4812 286.134 55.451 288.16 54.7909C290.185 54.1308 292.154 52.5843 292.388 50.4607C290.683 51.1435 289.103 49.3631 287.458 48.5446C284.75 47.2018 281.661 48.4654 278.869 48.7747C275.69 49.1293 272.672 47.8128 269.455 48.0467Z" fill="black"/>
<path d="M269.3 47.7412C267.542 47.877 265.581 49.0915 265.679 50.853C265.732 51.8224 266.396 52.6409 266.686 53.5688C267.384 55.8131 265.83 58.0649 264.464 59.981C263.099 61.8972 261.824 64.4357 262.993 66.465C263.327 66.9535 263.687 67.4232 264.072 67.8719C265.517 69.822 265.498 72.4548 266.139 74.7971C266.958 77.7938 268.894 80.363 271.548 81.9765C274.203 83.5901 277.375 84.1254 280.412 83.4726C279.269 82.0131 278.698 80.1859 278.809 78.3352C278.896 76.9924 279.329 75.5892 278.809 74.3483C278.138 72.7528 276.169 72.1229 275.154 70.7272C274.139 69.3316 274.207 67.3966 274.698 65.7332C275.188 64.0698 276.037 62.5271 276.444 60.8297C276.544 60.3345 276.67 59.8448 276.821 59.3624C277.53 57.3482 279.65 56.179 281.725 55.6773C283.799 55.1756 285.979 55.1454 288.005 54.4854C290.03 53.8253 291.999 52.2788 292.233 50.1552C290.528 50.8379 288.948 49.0576 287.303 48.2391C284.595 46.8963 281.506 48.1599 278.715 48.4691C275.542 48.8199 272.536 47.4884 269.3 47.7412Z" fill="#493545"/>
<path opacity="0.1" d="M286.873 78.1013C286.873 78.1013 290.072 80.9567 290.702 82.2165L286.873 78.1013Z" fill="black"/>
<path opacity="0.1" d="M293.795 95.1543C293.795 95.1543 289.8 95.1543 287.956 95.6145C286.111 96.0746 281.657 95.6145 281.657 95.6145" fill="black"/>
<g opacity="0.1">
<path opacity="0.1" d="M291.098 82.0166C290.753 82.2137 290.381 82.3562 289.993 82.4391C290.995 82.6612 292.043 82.511 292.942 82.0166C298.321 78.9425 287.258 72.0323 287.258 72.0323H285.414C285.414 72.0323 296.477 78.9463 291.098 82.0166Z" fill="black"/>
<path opacity="0.1" d="M313.103 39.4355C313.103 39.3374 313.081 39.2431 313.066 39.1564C312.434 39.2873 311.795 39.3843 311.153 39.4468C311.801 39.5181 312.456 39.5143 313.103 39.4355Z" fill="black"/>
<path opacity="0.1" d="M273.739 112.897C276.964 110.438 275.124 96.4593 275.124 96.4593C275.124 96.4593 269.594 87.8556 269.439 84.6306C269.285 81.4056 256.69 65.2731 256.69 65.2731C255.001 64.3527 253.156 60.9731 253.156 60.9731C253.156 60.9731 242.708 43.9202 241.173 43.3054L251.312 60.9731C251.312 60.9731 253.156 64.3678 254.846 65.2731C254.846 65.2731 267.444 81.4056 267.595 84.6306C267.746 87.8556 273.276 96.4706 273.276 96.4706C273.276 96.4706 275.12 110.449 271.891 112.909C271.891 112.909 282.939 115.741 289.563 115.485C282.924 115.251 273.739 112.897 273.739 112.897Z" fill="black"/>
<path opacity="0.1" d="M277.055 73.5336L276.965 73.4166C276.859 73.4477 276.752 73.4717 276.644 73.4883C276.787 73.5072 276.923 73.5222 277.055 73.5336Z" fill="black"/>
</g>
<g opacity="0.1">
<path opacity="0.1" d="M313.065 39.1375L312.971 39.1563C312.809 43.875 309.535 54.9607 309.535 54.9607C309.535 56.956 307.385 60.0301 307.385 60.0301C307.385 60.0301 298.476 73.7033 296.477 75.5478C294.477 77.3923 295.247 81.0774 295.247 81.0774L295.266 81.1151C295.205 79.8742 295.356 77.9505 296.627 76.7737C298.623 74.9292 307.536 61.256 307.536 61.256C307.536 61.256 309.686 58.1819 309.686 56.1865C309.686 56.2092 313.68 42.6906 313.065 39.1375Z" fill="black"/>
<path opacity="0.1" d="M293.557 93.9999C293.787 95.305 293.633 93.9245 293.712 95.2296C293.712 95.2296 297.484 90.8051 296.454 85.3358C296.763 90.2242 293.557 93.9999 293.557 93.9999Z" fill="black"/>
</g>
<path opacity="0.1" d="M177.201 249.52C266.292 249.52 338.515 242.583 338.515 234.025C338.515 225.467 266.292 218.53 177.201 218.53C88.1099 218.53 15.8873 225.467 15.8873 234.025C15.8873 242.583 88.1099 249.52 177.201 249.52Z" fill="#6C63FF"/>
<path d="M114.67 218.304C114.67 218.304 109.178 199.651 115.7 185.925C118.474 180.185 119.31 173.699 118.084 167.443C117.478 164.477 116.602 161.573 115.466 158.768" stroke="#535461" stroke-width="0.754384" stroke-miterlimit="10"/>
<path d="M119.532 150.1C119.532 152.386 115.383 159.013 115.383 159.013C115.383 159.013 111.234 152.386 111.234 150.1C111.192 149.531 111.268 148.959 111.456 148.421C111.645 147.882 111.943 147.388 112.332 146.97C112.72 146.552 113.19 146.218 113.713 145.99C114.237 145.762 114.801 145.645 115.372 145.645C115.942 145.645 116.507 145.762 117.03 145.99C117.553 146.218 118.024 146.552 118.412 146.97C118.8 147.388 119.098 147.882 119.287 148.421C119.476 148.959 119.552 149.531 119.51 150.1H119.532Z" fill="#6C63FF"/>
<path d="M126.363 162.758C125.122 164.678 118.046 167.99 118.046 167.99C118.046 167.99 118.174 160.178 119.415 158.258C119.69 157.76 120.065 157.324 120.517 156.976C120.968 156.629 121.486 156.378 122.038 156.24C122.59 156.101 123.165 156.078 123.727 156.171C124.288 156.264 124.825 156.472 125.303 156.782C125.781 157.091 126.19 157.496 126.505 157.97C126.819 158.445 127.033 158.979 127.133 159.539C127.232 160.1 127.215 160.675 127.083 161.229C126.95 161.783 126.705 162.303 126.363 162.758Z" fill="#6C63FF"/>
<path d="M126.065 184.398C124.024 185.428 116.258 184.715 116.258 184.715C116.258 184.715 120.313 178.035 122.353 177.005C122.843 176.711 123.387 176.522 123.953 176.448C124.519 176.374 125.094 176.418 125.642 176.576C126.19 176.735 126.699 177.005 127.139 177.369C127.578 177.733 127.937 178.184 128.194 178.694C128.451 179.203 128.6 179.76 128.632 180.33C128.664 180.899 128.578 181.47 128.38 182.005C128.181 182.54 127.875 183.028 127.479 183.439C127.083 183.85 126.607 184.175 126.08 184.394L126.065 184.398Z" fill="#6C63FF"/>
<path d="M122.154 200.715C120.317 202.073 112.524 202.688 112.524 202.688C112.524 202.688 115.391 195.419 117.231 194.058C118.117 193.519 119.172 193.332 120.189 193.533C121.206 193.734 122.111 194.308 122.726 195.142C123.341 195.976 123.621 197.011 123.512 198.041C123.402 199.072 122.911 200.025 122.135 200.711L122.154 200.715Z" fill="#6C63FF"/>
<path d="M109.348 168.435C110.989 170.027 118.627 171.679 118.627 171.679C118.627 171.679 116.741 164.094 115.115 162.498C114.736 162.073 114.273 161.73 113.755 161.492C113.238 161.253 112.677 161.124 112.107 161.112C111.537 161.1 110.971 161.205 110.444 161.421C109.917 161.638 109.44 161.96 109.043 162.369C108.646 162.778 108.337 163.264 108.136 163.797C107.935 164.33 107.846 164.899 107.875 165.468C107.904 166.038 108.049 166.595 108.303 167.105C108.556 167.615 108.912 168.068 109.348 168.435Z" fill="#6C63FF"/>
<path d="M105.022 187.581C107.062 188.611 114.829 187.898 114.829 187.898C114.829 187.898 110.789 181.218 108.748 180.207C107.781 179.806 106.697 179.785 105.715 180.149C104.733 180.513 103.925 181.235 103.453 182.171C102.981 183.106 102.881 184.185 103.172 185.192C103.463 186.198 104.124 187.057 105.022 187.596V187.581Z" fill="#6C63FF"/>
<path d="M103.362 206.765C105.199 208.123 112.992 208.738 112.992 208.738C112.992 208.738 110.125 201.47 108.284 200.108C107.853 199.726 107.347 199.439 106.798 199.263C106.249 199.088 105.67 199.029 105.097 199.09C104.525 199.151 103.971 199.33 103.471 199.617C102.972 199.903 102.537 200.291 102.195 200.754C101.854 201.218 101.612 201.748 101.486 202.31C101.361 202.872 101.353 203.454 101.465 204.019C101.576 204.584 101.804 205.12 102.134 205.592C102.464 206.064 102.889 206.462 103.381 206.762L103.362 206.765Z" fill="#6C63FF"/>
<path opacity="0.1" d="M119.532 150.1C119.532 152.386 115.383 159.013 115.383 159.013C115.383 159.013 111.234 152.386 111.234 150.1C111.192 149.531 111.268 148.959 111.456 148.421C111.645 147.882 111.943 147.388 112.332 146.97C112.72 146.552 113.19 146.218 113.713 145.99C114.237 145.762 114.801 145.645 115.372 145.645C115.942 145.645 116.507 145.762 117.03 145.99C117.553 146.218 118.024 146.552 118.412 146.97C118.8 147.388 119.098 147.882 119.287 148.421C119.476 148.959 119.552 149.531 119.51 150.1H119.532Z" fill="#6C63FF"/>
<path opacity="0.1" d="M126.363 162.758C125.122 164.678 118.046 167.99 118.046 167.99C118.046 167.99 118.174 160.178 119.415 158.258C119.69 157.76 120.065 157.324 120.517 156.976C120.968 156.629 121.486 156.378 122.038 156.24C122.59 156.101 123.165 156.078 123.727 156.171C124.288 156.264 124.825 156.472 125.303 156.782C125.781 157.091 126.19 157.496 126.505 157.97C126.819 158.445 127.033 158.979 127.133 159.539C127.232 160.1 127.215 160.675 127.083 161.229C126.95 161.783 126.705 162.303 126.363 162.758Z" fill="#6C63FF"/>
<path opacity="0.1" d="M126.065 184.398C124.024 185.428 116.258 184.715 116.258 184.715C116.258 184.715 120.313 178.035 122.353 177.005C122.843 176.711 123.387 176.522 123.953 176.448C124.519 176.374 125.094 176.418 125.642 176.576C126.19 176.735 126.699 177.005 127.139 177.369C127.578 177.733 127.937 178.184 128.194 178.694C128.451 179.203 128.6 179.76 128.632 180.33C128.664 180.899 128.578 181.47 128.38 182.005C128.181 182.54 127.875 183.028 127.479 183.439C127.083 183.85 126.607 184.175 126.08 184.394L126.065 184.398Z" fill="#6C63FF"/>
<path opacity="0.1" d="M122.154 200.715C120.317 202.073 112.524 202.688 112.524 202.688C112.524 202.688 115.391 195.419 117.231 194.058C118.117 193.519 119.172 193.332 120.189 193.533C121.206 193.734 122.111 194.308 122.726 195.142C123.341 195.976 123.621 197.011 123.512 198.041C123.402 199.072 122.911 200.025 122.135 200.711L122.154 200.715Z" fill="#6C63FF"/>
<path opacity="0.1" d="M109.348 168.435C110.989 170.027 118.627 171.679 118.627 171.679C118.627 171.679 116.741 164.094 115.115 162.498C114.736 162.073 114.273 161.73 113.755 161.492C113.238 161.253 112.677 161.124 112.107 161.112C111.537 161.1 110.971 161.205 110.444 161.421C109.917 161.638 109.44 161.96 109.043 162.369C108.646 162.778 108.337 163.264 108.136 163.797C107.935 164.33 107.846 164.899 107.875 165.468C107.904 166.038 108.049 166.595 108.303 167.105C108.556 167.615 108.912 168.068 109.348 168.435Z" fill="#6C63FF"/>
<path opacity="0.1" d="M105.022 187.581C107.062 188.611 114.829 187.898 114.829 187.898C114.829 187.898 110.789 181.218 108.748 180.207C107.781 179.806 106.697 179.785 105.715 180.149C104.733 180.513 103.925 181.235 103.453 182.171C102.981 183.106 102.881 184.185 103.172 185.192C103.463 186.198 104.124 187.057 105.022 187.596V187.581Z" fill="#6C63FF"/>
<path opacity="0.1" d="M103.362 206.765C105.199 208.123 112.992 208.738 112.992 208.738C112.992 208.738 110.125 201.47 108.284 200.108C107.853 199.726 107.347 199.439 106.798 199.263C106.249 199.088 105.67 199.029 105.097 199.09C104.525 199.151 103.971 199.33 103.471 199.617C102.972 199.903 102.537 200.291 102.195 200.754C101.854 201.218 101.612 201.748 101.486 202.31C101.361 202.872 101.353 203.454 101.465 204.019C101.576 204.584 101.804 205.12 102.134 205.592C102.464 206.064 102.889 206.462 103.381 206.762L103.362 206.765Z" fill="#6C63FF"/>
<path d="M225.806 218.572C225.806 218.572 220.314 199.919 226.836 186.193C229.609 180.453 230.446 173.967 229.22 167.711C228.614 164.745 227.738 161.841 226.602 159.036" stroke="#535461" stroke-width="0.754384" stroke-miterlimit="10"/>
<path d="M230.66 150.364C230.66 152.65 226.511 159.277 226.511 159.277C226.511 159.277 222.362 152.65 222.362 150.364C222.439 149.319 222.909 148.343 223.676 147.63C224.444 146.917 225.453 146.521 226.5 146.521C227.547 146.521 228.556 146.917 229.323 147.63C230.091 148.343 230.56 149.319 230.638 150.364H230.66Z" fill="#6C63FF"/>
<path d="M237.503 163.022C236.262 164.942 229.186 168.254 229.186 168.254C229.186 168.254 229.314 160.442 230.555 158.522C230.83 158.024 231.205 157.588 231.656 157.24C232.107 156.893 232.625 156.642 233.178 156.504C233.73 156.365 234.305 156.342 234.866 156.435C235.428 156.528 235.965 156.736 236.442 157.046C236.92 157.355 237.329 157.76 237.644 158.234C237.959 158.709 238.173 159.243 238.272 159.804C238.372 160.364 238.355 160.939 238.222 161.493C238.09 162.047 237.845 162.567 237.503 163.022Z" fill="#6C63FF"/>
<path d="M237.216 184.662C235.175 185.692 227.409 184.979 227.409 184.979C227.409 184.979 231.464 178.299 233.504 177.269C233.994 176.972 234.54 176.781 235.108 176.705C235.675 176.63 236.252 176.673 236.802 176.832C237.352 176.99 237.863 177.261 238.304 177.627C238.744 177.992 239.104 178.445 239.361 178.957C239.618 179.468 239.766 180.028 239.796 180.599C239.826 181.171 239.738 181.743 239.537 182.279C239.335 182.814 239.025 183.303 238.626 183.713C238.226 184.123 237.746 184.446 237.216 184.662Z" fill="#6C63FF"/>
<path d="M233.289 200.979C231.452 202.337 223.66 202.952 223.66 202.952C223.66 202.952 226.526 195.683 228.367 194.322C229.253 193.784 230.308 193.596 231.325 193.797C232.342 193.998 233.247 194.572 233.862 195.406C234.477 196.241 234.757 197.275 234.648 198.306C234.538 199.336 234.047 200.289 233.271 200.975L233.289 200.979Z" fill="#6C63FF"/>
<path d="M220.491 168.699C222.132 170.291 229.77 171.943 229.77 171.943C229.77 171.943 227.884 164.358 226.259 162.762C225.879 162.337 225.416 161.994 224.899 161.756C224.381 161.517 223.82 161.388 223.251 161.376C222.681 161.364 222.115 161.469 221.588 161.686C221.06 161.902 220.583 162.224 220.186 162.633C219.789 163.042 219.481 163.528 219.28 164.061C219.079 164.594 218.99 165.163 219.019 165.732C219.047 166.302 219.193 166.859 219.446 167.369C219.699 167.879 220.055 168.332 220.491 168.699Z" fill="#6C63FF"/>
<path d="M216.157 187.845C218.198 188.875 225.964 188.162 225.964 188.162C225.964 188.162 221.91 181.482 219.869 180.452C218.901 180.051 217.818 180.03 216.836 180.394C215.853 180.758 215.045 181.481 214.573 182.416C214.102 183.351 214.001 184.431 214.292 185.437C214.583 186.443 215.244 187.302 216.142 187.842L216.157 187.845Z" fill="#6C63FF"/>
<path d="M214.502 207.029C216.338 208.387 224.131 209.002 224.131 209.002C224.131 209.002 221.265 201.734 219.424 200.372C218.538 199.834 217.483 199.647 216.466 199.847C215.449 200.048 214.544 200.622 213.929 201.456C213.314 202.291 213.034 203.325 213.143 204.356C213.253 205.386 213.744 206.339 214.52 207.026L214.502 207.029Z" fill="#6C63FF"/>
<path opacity="0.1" d="M230.66 150.364C230.66 152.65 226.511 159.277 226.511 159.277C226.511 159.277 222.362 152.65 222.362 150.364C222.439 149.319 222.909 148.343 223.676 147.63C224.444 146.917 225.453 146.521 226.5 146.521C227.547 146.521 228.556 146.917 229.323 147.63C230.091 148.343 230.56 149.319 230.638 150.364H230.66Z" fill="#6C63FF"/>
<path opacity="0.1" d="M237.503 163.022C236.262 164.942 229.186 168.254 229.186 168.254C229.186 168.254 229.314 160.442 230.555 158.522C230.83 158.024 231.205 157.588 231.656 157.24C232.107 156.893 232.625 156.642 233.178 156.504C233.73 156.365 234.305 156.342 234.866 156.435C235.428 156.528 235.965 156.736 236.442 157.046C236.92 157.355 237.329 157.76 237.644 158.234C237.959 158.709 238.173 159.243 238.272 159.804C238.372 160.364 238.355 160.939 238.222 161.493C238.09 162.047 237.845 162.567 237.503 163.022Z" fill="#6C63FF"/>
<path opacity="0.1" d="M237.216 184.662C235.175 185.692 227.409 184.979 227.409 184.979C227.409 184.979 231.464 178.299 233.504 177.269C233.994 176.972 234.54 176.781 235.108 176.705C235.675 176.63 236.252 176.673 236.802 176.832C237.352 176.99 237.863 177.261 238.304 177.627C238.744 177.992 239.104 178.445 239.361 178.957C239.618 179.468 239.766 180.028 239.796 180.599C239.826 181.171 239.738 181.743 239.537 182.279C239.335 182.814 239.025 183.303 238.626 183.713C238.226 184.123 237.746 184.446 237.216 184.662Z" fill="#6C63FF"/>
<path opacity="0.1" d="M233.289 200.979C231.452 202.337 223.66 202.952 223.66 202.952C223.66 202.952 226.526 195.683 228.367 194.322C229.253 193.784 230.308 193.596 231.325 193.797C232.342 193.998 233.247 194.572 233.862 195.406C234.477 196.241 234.757 197.275 234.648 198.306C234.538 199.336 234.047 200.289 233.271 200.975L233.289 200.979Z" fill="#6C63FF"/>
<path opacity="0.1" d="M220.491 168.699C222.132 170.291 229.77 171.943 229.77 171.943C229.77 171.943 227.884 164.358 226.259 162.762C225.879 162.337 225.416 161.994 224.899 161.756C224.381 161.517 223.82 161.388 223.251 161.376C222.681 161.364 222.115 161.469 221.588 161.686C221.06 161.902 220.583 162.224 220.186 162.633C219.789 163.042 219.481 163.528 219.28 164.061C219.079 164.594 218.99 165.163 219.019 165.732C219.047 166.302 219.193 166.859 219.446 167.369C219.699 167.879 220.055 168.332 220.491 168.699Z" fill="#6C63FF"/>
<path opacity="0.1" d="M216.157 187.845C218.198 188.875 225.964 188.162 225.964 188.162C225.964 188.162 221.91 181.482 219.869 180.452C218.901 180.051 217.818 180.03 216.836 180.394C215.853 180.758 215.045 181.481 214.573 182.416C214.102 183.351 214.001 184.431 214.292 185.437C214.583 186.443 215.244 187.302 216.142 187.842L216.157 187.845Z" fill="#6C63FF"/>
<path opacity="0.1" d="M214.502 207.029C216.338 208.387 224.131 209.002 224.131 209.002C224.131 209.002 221.265 201.734 219.424 200.372C218.538 199.834 217.483 199.647 216.466 199.847C215.449 200.048 214.544 200.622 213.929 201.456C213.314 202.291 213.034 203.325 213.143 204.356C213.253 205.386 213.744 206.339 214.52 207.026L214.502 207.029Z" fill="#6C63FF"/>
<path opacity="0.5" d="M252.681 5.7748H250.312C250.536 5.78551 250.761 5.75056 250.971 5.67208C251.182 5.5936 251.374 5.47322 251.536 5.31823C251.699 5.16324 251.828 4.97686 251.917 4.77039C252.005 4.56392 252.051 4.34165 252.051 4.11704C252.051 3.89243 252.005 3.67017 251.917 3.46369C251.828 3.25722 251.699 3.07085 251.536 2.91586C251.374 2.76086 251.182 2.64048 250.971 2.562C250.761 2.48352 250.536 2.44858 250.312 2.45928H231.106C230.68 2.47961 230.278 2.66314 229.983 2.9718C229.689 3.28046 229.525 3.69057 229.525 4.11704C229.525 4.54351 229.689 4.95362 229.983 5.26228C230.278 5.57094 230.68 5.75448 231.106 5.7748H233.474C233.048 5.79513 232.647 5.97866 232.352 6.28732C232.058 6.59599 231.894 7.00609 231.894 7.43256C231.894 7.85903 232.058 8.26913 232.352 8.5778C232.647 8.88646 233.048 9.06999 233.474 9.09032H230.159C229.934 9.07961 229.71 9.11456 229.5 9.19304C229.289 9.27152 229.097 9.3919 228.934 9.54689C228.772 9.70188 228.642 9.88825 228.554 10.0947C228.466 10.3012 228.42 10.5235 228.42 10.7481C228.42 10.9727 228.466 11.195 228.554 11.4014C228.642 11.6079 228.772 11.7943 228.934 11.9493C229.097 12.1042 229.289 12.2246 229.5 12.3031C229.71 12.3816 229.934 12.4165 230.159 12.4058H249.35C249.575 12.4165 249.799 12.3816 250.009 12.3031C250.22 12.2246 250.412 12.1042 250.575 11.9493C250.737 11.7943 250.867 11.6079 250.955 11.4014C251.043 11.195 251.089 10.9727 251.089 10.7481C251.089 10.5235 251.043 10.3012 250.955 10.0947C250.867 9.88825 250.737 9.70188 250.575 9.54689C250.412 9.3919 250.22 9.27152 250.009 9.19304C249.799 9.11456 249.575 9.07961 249.35 9.09032H252.681C253.107 9.06999 253.509 8.88646 253.803 8.5778C254.097 8.26913 254.261 7.85903 254.261 7.43256C254.261 7.00609 254.097 6.59599 253.803 6.28732C253.509 5.97866 253.107 5.79513 252.681 5.7748Z" fill="#DEE3F3"/>
<path opacity="0.5" d="M141.703 15.446H139.9C140.072 15.4553 140.244 15.4297 140.405 15.3705C140.566 15.3113 140.714 15.2199 140.838 15.1018C140.963 14.9837 141.062 14.8415 141.13 14.6837C141.198 14.5259 141.233 14.356 141.233 14.1842C141.233 14.0125 141.198 13.8426 141.13 13.6848C141.062 13.527 140.963 13.3848 140.838 13.2667C140.714 13.1486 140.566 13.0572 140.405 12.998C140.244 12.9388 140.072 12.9132 139.9 12.9225H125.296C124.973 12.9402 124.669 13.0808 124.447 13.3155C124.225 13.5502 124.101 13.8611 124.101 14.1842C124.101 14.5074 124.225 14.8183 124.447 15.053C124.669 15.2877 124.973 15.4283 125.296 15.446H127.099C126.927 15.4366 126.755 15.4623 126.594 15.5214C126.433 15.5806 126.286 15.672 126.161 15.7901C126.036 15.9082 125.937 16.0504 125.869 16.2082C125.801 16.366 125.766 16.5359 125.766 16.7077C125.766 16.8794 125.801 17.0494 125.869 17.2071C125.937 17.3649 126.036 17.5072 126.161 17.6252C126.286 17.7433 126.433 17.8347 126.594 17.8939C126.755 17.9531 126.927 17.9788 127.099 17.9694H124.575C124.404 17.96 124.232 17.9857 124.071 18.0448C123.91 18.104 123.762 18.1954 123.637 18.3135C123.513 18.4316 123.413 18.5739 123.345 18.7316C123.278 18.8894 123.243 19.0593 123.243 19.2311C123.243 19.4028 123.278 19.5728 123.345 19.7305C123.413 19.8883 123.513 20.0306 123.637 20.1486C123.762 20.2667 123.91 20.3581 124.071 20.4173C124.232 20.4765 124.404 20.5022 124.575 20.4928H139.18C139.352 20.5022 139.523 20.4765 139.684 20.4173C139.846 20.3581 139.993 20.2667 140.118 20.1486C140.243 20.0306 140.342 19.8883 140.41 19.7305C140.478 19.5728 140.513 19.4028 140.513 19.2311C140.513 19.0593 140.478 18.8894 140.41 18.7316C140.342 18.5739 140.243 18.4316 140.118 18.3135C139.993 18.1954 139.846 18.104 139.684 18.0448C139.523 17.9857 139.352 17.96 139.18 17.9694H141.703C142.026 17.9517 142.33 17.8111 142.552 17.5764C142.774 17.3417 142.898 17.0308 142.898 16.7077C142.898 16.3845 142.774 16.0736 142.552 15.8389C142.33 15.6042 142.026 15.4636 141.703 15.446Z" fill="#DEE3F3"/>
<path d="M19.1161 194.163C19.1161 194.163 25.717 207.12 20.3382 214.207C14.9595 221.295 20.8286 240.611 20.8286 240.611" stroke="#6C63FF" stroke-width="0.377192" stroke-miterlimit="10"/>
<path d="M21.085 190.112C21.085 192.609 19.2519 194.639 19.2519 194.639C19.2519 194.639 17.4187 192.613 17.4187 190.112C17.4187 187.611 19.2519 185.586 19.2519 185.586C19.2519 185.586 21.085 187.615 21.085 190.112Z" fill="#6C63FF"/>
<path d="M22.5373 194.163C22.5373 194.163 15.9364 207.12 21.3152 214.207C26.6939 221.295 20.8248 240.611 20.8248 240.611" stroke="#6C63FF" stroke-width="0.377192" stroke-miterlimit="10"/>
<path d="M20.5833 190.112C20.5833 192.609 22.4164 194.639 22.4164 194.639C22.4164 194.639 24.2496 192.613 24.2496 190.112C24.2496 187.611 22.4164 185.586 22.4164 185.586C22.4164 185.586 20.5833 187.615 20.5833 190.112Z" fill="#6C63FF"/>
<path opacity="0.1" d="M20.5833 190.112C20.5833 192.609 22.4164 194.639 22.4164 194.639C22.4164 194.639 24.2496 192.613 24.2496 190.112C24.2496 187.611 22.4164 185.586 22.4164 185.586C22.4164 185.586 20.5833 187.615 20.5833 190.112Z" fill="black"/>
<path d="M25.2342 194.163C25.2342 194.163 31.835 207.12 26.4563 214.207C21.0775 221.295 26.9466 240.611 26.9466 240.611" stroke="#6C63FF" stroke-width="0.377192" stroke-miterlimit="10"/>
<path d="M27.1843 190.112C27.1843 192.609 25.3511 194.639 25.3511 194.639C25.3511 194.639 23.5179 192.613 23.5179 190.112C23.5179 187.611 25.3511 185.586 25.3511 185.586C25.3511 185.586 27.1843 187.615 27.1843 190.112Z" fill="#6C63FF"/>
<path d="M26.1545 200.493C24.4231 202.292 21.696 202.48 21.696 202.48C21.696 202.48 21.779 199.75 23.5103 197.954C25.2416 196.159 27.9687 195.966 27.9687 195.966C27.9687 195.966 27.8745 198.69 26.1545 200.493Z" fill="#6C63FF"/>
<path d="M26.328 209.432C24.5967 211.231 21.8696 211.42 21.8696 211.42C21.8696 211.42 21.9526 208.689 23.6839 206.894C25.4152 205.098 28.1423 204.906 28.1423 204.906C28.1423 204.906 28.0593 207.629 26.328 209.432Z" fill="#6C63FF"/>
<path d="M16.9359 214.347C18.5729 216.233 18.5164 218.964 18.5164 218.964C18.5164 218.964 15.8044 218.636 14.1673 216.75C12.5303 214.864 12.5869 212.133 12.5869 212.133C12.5869 212.133 15.2989 212.461 16.9359 214.347Z" fill="#6C63FF"/>
<path d="M18.4447 195.295C20.5268 196.675 21.2019 199.323 21.2019 199.323C21.2019 199.323 18.5012 199.734 16.4191 198.354C14.337 196.973 13.6619 194.326 13.6619 194.326C13.6619 194.326 16.3739 193.907 18.4447 195.295Z" fill="#6C63FF"/>
<path opacity="0.1" d="M18.4447 195.295C20.5268 196.675 21.2019 199.323 21.2019 199.323C21.2019 199.323 18.5012 199.734 16.4191 198.354C14.337 196.973 13.6619 194.326 13.6619 194.326C13.6619 194.326 16.3739 193.907 18.4447 195.295Z" fill="black"/>
<path d="M28.6478 194.163C28.6478 194.163 22.0469 207.12 27.4257 214.207C32.8044 221.295 26.9353 240.611 26.9353 240.611" stroke="#6C63FF" stroke-width="0.377192" stroke-miterlimit="10"/>
<path d="M26.6938 190.112C26.6938 192.609 28.527 194.639 28.527 194.639C28.527 194.639 30.3602 192.613 30.3602 190.112C30.3602 187.611 28.527 185.586 28.527 185.586C28.527 185.586 26.6938 187.615 26.6938 190.112Z" fill="#6C63FF"/>
<path opacity="0.1" d="M26.6938 190.112C26.6938 192.609 28.527 194.639 28.527 194.639C28.527 194.639 30.3602 192.613 30.3602 190.112C30.3602 187.611 28.527 185.586 28.527 185.586C28.527 185.586 26.6938 187.615 26.6938 190.112Z" fill="black"/>
<path d="M27.2219 200.685C25.468 202.465 25.3359 205.211 25.3359 205.211C25.3359 205.211 28.063 205.057 29.817 203.276C31.5709 201.496 31.7029 198.75 31.7029 198.75C31.7029 198.75 28.9758 198.905 27.2219 200.685Z" fill="#6C63FF"/>
<path opacity="0.1" d="M27.2219 200.685C25.468 202.465 25.3359 205.211 25.3359 205.211C25.3359 205.211 28.063 205.057 29.817 203.276C31.5709 201.496 31.7029 198.75 31.7029 198.75C31.7029 198.75 28.9758 198.905 27.2219 200.685Z" fill="black"/>
<path d="M30.6582 213.061C28.9042 214.841 28.7722 217.587 28.7722 217.587C28.7722 217.587 31.4993 217.432 33.2533 215.652C35.0072 213.872 35.1392 211.126 35.1392 211.126C35.1392 211.126 32.4008 211.28 30.6582 213.061Z" fill="#6C63FF"/>
<path d="M25.6113 210.341C25.6113 210.341 29.5832 204.08 35.1618 203.929" stroke="#6C63FF" stroke-width="0.377192" stroke-miterlimit="10"/>
<path d="M22.507 206.558C22.507 206.558 18.5352 200.296 12.9565 200.146" stroke="#6C63FF" stroke-width="0.377192" stroke-miterlimit="10"/>
<path d="M21.9904 215.497C21.9904 215.497 25.9622 209.236 31.5409 209.085" stroke="#6C63FF" stroke-width="0.377192" stroke-miterlimit="10"/>
<path d="M34.9694 204.925C35.5381 204.925 35.9992 204.464 35.9992 203.895C35.9992 203.326 35.5381 202.865 34.9694 202.865C34.4007 202.865 33.9397 203.326 33.9397 203.895C33.9397 204.464 34.4007 204.925 34.9694 204.925Z" fill="#6C63FF"/>
<path d="M13.0546 201.228C13.6233 201.228 14.0844 200.767 14.0844 200.198C14.0844 199.63 13.6233 199.169 13.0546 199.169C12.4859 199.169 12.0249 199.63 12.0249 200.198C12.0249 200.767 12.4859 201.228 13.0546 201.228Z" fill="#6C63FF"/>
<path d="M24.9135 217.549C24.9135 217.549 20.9417 211.288 15.363 211.137" stroke="#6C63FF" stroke-width="0.377192" stroke-miterlimit="10"/>
<path d="M15.4611 212.227C16.0298 212.227 16.4909 211.766 16.4909 211.197C16.4909 210.629 16.0298 210.167 15.4611 210.167C14.8924 210.167 14.4314 210.629 14.4314 211.197C14.4314 211.766 14.8924 212.227 15.4611 212.227Z" fill="#6C63FF"/>
<path d="M31.6163 210.168C32.185 210.168 32.646 209.707 32.646 209.138C32.646 208.569 32.185 208.108 31.6163 208.108C31.0476 208.108 30.5865 208.569 30.5865 209.138C30.5865 209.707 31.0476 210.168 31.6163 210.168Z" fill="#6C63FF"/>
<path d="M46.8774 233.071C46.8774 233.071 37.3043 231.155 34.7469 228.601C32.1895 226.047 20.7078 221.581 19.4291 224.773C18.1505 227.964 2.19524 238.815 13.0471 240.731C23.8989 242.648 38.5792 243.285 41.7702 242.006C44.9613 240.728 46.8774 233.071 46.8774 233.071Z" fill="#A8A8A8"/>
<path opacity="0.2" d="M13.0471 239.543C23.8989 241.459 38.5792 242.097 41.7702 240.818C44.1993 239.845 45.8892 235.16 46.5568 233.003L46.8774 233.071C46.8774 233.071 44.9613 240.731 41.7702 242.006C38.5792 243.281 23.8989 242.644 13.0471 240.731C9.91637 240.177 9.01866 238.879 9.35813 237.239C9.62217 238.295 10.716 239.132 13.0471 239.543Z" fill="black"/>
<path d="M337.523 197.098C337.523 197.098 340.684 201.247 336.063 207.471C331.442 213.694 327.633 218.979 329.175 222.871C329.175 222.871 336.146 211.28 341.819 211.118C347.492 210.956 343.765 204.065 337.523 197.098Z" fill="#6C63FF"/>
<path opacity="0.1" d="M337.523 197.098C337.798 197.498 338.015 197.935 338.168 198.395C343.705 204.898 346.651 210.967 341.332 211.122C336.376 211.265 330.431 220.125 329.006 222.366C329.053 222.539 329.109 222.709 329.175 222.875C329.175 222.875 336.146 211.284 341.819 211.122C347.492 210.96 343.765 204.065 337.523 197.098Z" fill="black"/>
<path d="M343.399 202.363C343.399 203.819 343.237 205.004 343.022 205.004C342.807 205.004 342.645 203.823 342.645 202.363C342.645 200.904 342.849 201.609 343.048 201.609C343.248 201.609 343.399 200.911 343.399 202.363Z" fill="#FFD037"/>
<path d="M345.417 204.102C344.139 204.8 343.026 205.234 342.932 205.042C342.837 204.849 343.792 204.155 345.07 203.461C346.349 202.767 345.844 203.273 345.942 203.461C346.04 203.65 346.692 203.405 345.417 204.102Z" fill="#FFD037"/>
<path d="M320.828 197.098C320.828 197.098 317.667 201.247 322.288 207.471C326.908 213.694 330.718 218.979 329.175 222.871C329.175 222.871 322.205 211.28 316.532 211.118C310.859 210.956 314.586 204.065 320.828 197.098Z" fill="#6C63FF"/>
<path opacity="0.1" d="M320.828 197.098C320.553 197.498 320.336 197.935 320.183 198.395C314.646 204.898 311.7 210.967 317.019 211.122C321.975 211.265 327.919 220.125 329.345 222.366C329.298 222.539 329.241 222.709 329.175 222.875C329.175 222.875 322.205 211.284 316.532 211.122C310.859 210.96 314.586 204.065 320.828 197.098Z" fill="black"/>
<path d="M314.952 202.363C314.952 203.819 315.114 205.004 315.329 205.004C315.544 205.004 315.706 203.823 315.706 202.363C315.706 200.904 315.502 201.609 315.302 201.609C315.102 201.609 314.952 200.911 314.952 202.363Z" fill="#FFD037"/>
<path d="M312.934 204.102C314.212 204.8 315.325 205.234 315.419 205.042C315.514 204.849 314.559 204.155 313.281 203.461C312.002 202.767 312.507 203.273 312.409 203.461C312.311 203.65 311.655 203.405 312.934 204.102Z" fill="#FFD037"/>
<path d="M315.959 222.328C315.959 222.328 324.796 222.057 327.459 220.159C330.122 218.262 341.038 216.01 341.713 219.028C342.388 222.045 354.994 234.157 345.017 234.236C335.041 234.315 321.835 232.682 319.176 231.064C316.517 229.446 315.959 222.328 315.959 222.328Z" fill="#A8A8A8"/>
<path opacity="0.2" d="M345.195 233.191C335.218 233.271 322.013 231.637 319.353 230.019C317.328 228.786 316.521 224.361 316.253 222.321H315.959C315.959 222.321 316.517 229.45 319.176 231.068C321.835 232.686 335.041 234.323 345.017 234.24C347.899 234.217 348.891 233.191 348.838 231.675C348.439 232.599 347.356 233.173 345.195 233.191Z" fill="black"/>
<path opacity="0.5" d="M67.0799 28.1536H64.7111C64.9355 28.1643 65.1597 28.1293 65.3701 28.0509C65.5806 27.9724 65.7729 27.852 65.9355 27.697C66.098 27.542 66.2275 27.3556 66.3159 27.1492C66.4043 26.9427 66.4499 26.7204 66.4499 26.4958C66.4499 26.2712 66.4043 26.0489 66.3159 25.8425C66.2275 25.636 66.098 25.4496 65.9355 25.2946C65.7729 25.1396 65.5806 25.0193 65.3701 24.9408C65.1597 24.8623 64.9355 24.8274 64.7111 24.8381H45.5196C45.0936 24.8584 44.6918 25.0419 44.3975 25.3506C44.1032 25.6593 43.9391 26.0694 43.9391 26.4958C43.9391 26.9223 44.1032 27.3324 44.3975 27.6411C44.6918 27.9497 45.0936 28.1333 45.5196 28.1536H47.8884C47.4624 28.1739 47.0606 28.3574 46.7663 28.6661C46.472 28.9748 46.3078 29.3849 46.3078 29.8113C46.3078 30.2378 46.472 30.6479 46.7663 30.9566C47.0606 31.2652 47.4624 31.4488 47.8884 31.4691H44.5729C44.1469 31.4894 43.7451 31.673 43.4508 31.9816C43.1565 32.2903 42.9923 32.7004 42.9923 33.1269C42.9923 33.5533 43.1565 33.9634 43.4508 34.2721C43.7451 34.5808 44.1469 34.7643 44.5729 34.7846H63.7644C63.9887 34.7953 64.2129 34.7604 64.4234 34.6819C64.6338 34.6034 64.8262 34.483 64.9887 34.328C65.1513 34.1731 65.2807 33.9867 65.3691 33.7802C65.4575 33.5737 65.5031 33.3515 65.5031 33.1269C65.5031 32.9023 65.4575 32.68 65.3691 32.4735C65.2807 32.267 65.1513 32.0807 64.9887 31.9257C64.8262 31.7707 64.6338 31.6503 64.4234 31.5718C64.2129 31.4933 63.9887 31.4584 63.7644 31.4691H67.0799C67.5059 31.4488 67.9077 31.2652 68.202 30.9566C68.4963 30.6479 68.6605 30.2378 68.6605 29.8113C68.6605 29.3849 68.4963 28.9748 68.202 28.6661C67.9077 28.3574 67.5059 28.1739 67.0799 28.1536Z" fill="#DEE3F3"/>
</g>
<defs>
<linearGradient id="paint0_linear" x1="173.697" y1="205.102" x2="173.697" y2="48.9444" gradientUnits="userSpaceOnUse">
<stop stop-color="#808080" stop-opacity="0.25"/>
<stop offset="0.54" stop-color="#808080" stop-opacity="0.12"/>
<stop offset="1" stop-color="#808080" stop-opacity="0.1"/>
</linearGradient>
<linearGradient id="paint1_linear" x1="144.417" y1="178.545" x2="144.417" y2="178.527" gradientUnits="userSpaceOnUse">
<stop stop-color="#808080" stop-opacity="0.25"/>
<stop offset="0.54" stop-color="#808080" stop-opacity="0.12"/>
<stop offset="1" stop-color="#808080" stop-opacity="0.1"/>
</linearGradient>
<linearGradient id="paint2_linear" x1="24289.5" y1="76267.8" x2="24289.5" y2="34194.5" gradientUnits="userSpaceOnUse">
<stop stop-color="#808080" stop-opacity="0.25"/>
<stop offset="0.54" stop-color="#808080" stop-opacity="0.12"/>
<stop offset="1" stop-color="#808080" stop-opacity="0.1"/>
</linearGradient>
<linearGradient id="paint3_linear" x1="68423.4" y1="92451.3" x2="68423.4" y2="29966.2" gradientUnits="userSpaceOnUse">
<stop stop-color="#808080" stop-opacity="0.25"/>
<stop offset="0.54" stop-color="#808080" stop-opacity="0.12"/>
<stop offset="1" stop-color="#808080" stop-opacity="0.1"/>
</linearGradient>
<clipPath id="clip0">
<rect width="358.257" height="249.52" fill="white"/>
</clipPath>
</defs>
</svg>
