<svg width="317" height="261" viewBox="0 0 317 261" fill="none" xmlns="http://www.w3.org/2000/svg">
<g clip-path="url(#clip0)">
<path d="M276.883 206.986C276.883 197.082 274.103 187.378 268.859 178.977C263.615 170.576 256.118 163.816 247.221 159.466C238.325 155.116 228.385 153.351 218.535 154.372C208.684 155.392 199.318 159.158 191.502 165.24C184.85 157.542 176.266 151.757 166.635 148.48C157.003 145.202 146.672 144.551 136.705 146.594C126.739 148.637 117.496 153.299 109.931 160.1C102.365 166.902 96.7483 175.598 93.66 185.291C88.4926 180.698 82.2868 177.428 75.5763 175.764C68.8657 174.099 61.8513 174.089 55.1362 175.735C48.4211 177.381 42.2063 180.634 37.0263 185.213C31.8464 189.793 27.8562 195.562 25.3991 202.024C22.942 208.487 22.0914 215.45 22.9205 222.314C23.7496 229.178 26.2336 235.737 30.1589 241.429C34.0841 247.121 39.3331 251.774 45.4545 254.988C51.5758 258.202 58.3863 259.881 65.3002 259.881C65.9637 259.881 66.623 259.864 67.279 259.834C67.9564 259.863 68.6368 259.881 69.3215 259.881H229.555C241.085 259.881 252.201 255.588 260.738 247.84C269.276 240.091 274.623 229.442 275.738 217.967C276.501 214.356 276.884 210.676 276.883 206.986Z" fill="#EFEFF0"/>
<path d="M278.682 200.509C278.682 190.606 275.902 180.901 270.658 172.5C265.414 164.099 257.917 157.339 249.02 152.989C240.124 148.639 230.184 146.874 220.334 147.895C210.483 148.916 201.117 152.681 193.302 158.763C186.649 151.066 178.065 145.28 168.434 142.003C158.802 138.726 148.471 138.075 138.504 140.117C128.538 142.16 119.296 146.822 111.73 153.624C104.164 160.425 98.5474 169.121 95.459 178.815C90.2917 174.221 84.0859 170.951 77.3754 169.287C70.6648 167.622 63.6504 167.613 56.9353 169.259C50.2202 170.905 44.0054 174.157 38.8254 178.737C33.6455 183.316 29.6553 189.085 27.1982 195.548C24.7411 202.01 23.8905 208.973 24.7196 215.837C25.5487 222.701 28.0327 229.261 31.958 234.952C35.8832 240.644 41.1322 245.297 47.2536 248.511C53.3749 251.726 60.1854 253.405 67.0993 253.405C67.7628 253.405 68.4221 253.387 69.0781 253.357C69.7555 253.387 70.4359 253.405 71.1206 253.405H231.354C242.884 253.404 254 249.111 262.537 241.363C271.075 233.615 276.422 222.966 277.538 211.49C278.3 207.88 278.683 204.199 278.682 200.509V200.509Z" stroke="#3F3D56" stroke-width="0.359818" stroke-miterlimit="10"/>
<path d="M69.4378 59.39H69.4378C64.8864 59.39 61.1968 63.0796 61.1968 67.631V84.3767C61.1968 88.9281 64.8864 92.6177 69.4378 92.6177C73.9892 92.6177 77.6788 88.9281 77.6788 84.3767V67.631C77.6788 63.0796 73.9892 59.39 69.4378 59.39Z" fill="#F8F16C"/>
<path d="M132.873 96.1412L132.873 96.1412C130.597 92.1996 125.557 90.8491 121.615 93.1248L107.113 101.498C103.172 103.773 101.821 108.813 104.097 112.755C106.372 116.697 111.413 118.047 115.354 115.771L129.856 107.399C133.798 105.123 135.148 100.083 132.873 96.1412Z" fill="#F8F16C"/>
<path d="M5.7831 169.263L5.7831 169.263C8.05879 173.204 13.0989 174.555 17.0405 172.279L31.5427 163.906C35.4843 161.631 36.8348 156.59 34.5591 152.649C32.2834 148.707 27.2433 147.357 23.3017 149.632L8.7995 158.005C4.8579 160.281 3.50741 165.321 5.7831 169.263Z" fill="#F8F16C"/>
<path d="M5.89298 95.9507L5.89297 95.9507C3.61728 99.8923 4.96778 104.932 8.90937 107.208L23.4116 115.581C27.3532 117.857 32.3933 116.506 34.669 112.565C36.9447 108.623 35.5942 103.583 31.6526 101.307L17.1504 92.9343C13.2088 90.6586 8.16866 92.0091 5.89298 95.9507Z" fill="#F8F16C"/>
<path d="M73.286 162.367C91.8555 162.367 106.909 147.314 106.909 128.744C106.909 110.174 91.8555 95.1207 73.286 95.1207C54.7164 95.1207 39.6627 110.174 39.6627 128.744C39.6627 147.314 54.7164 162.367 73.286 162.367Z" stroke="#FFC700" stroke-width="0.359818" stroke-miterlimit="10"/>
<path d="M73.3958 55.4321H73.3958C77.9472 55.4321 81.6368 59.1217 81.6368 63.6731V80.4188C81.6368 84.9702 77.9472 88.6598 73.3958 88.6598H73.3958C68.8444 88.6598 65.1548 84.9702 65.1548 80.4188V63.6731C65.1548 59.1217 68.8444 55.4321 73.3958 55.4321Z" stroke="#3F3D56" stroke-width="0.359818" stroke-miterlimit="10"/>
<path d="M136.831 92.1833L136.831 92.1833C139.106 96.1249 137.756 101.165 133.814 103.441L119.312 111.814C115.371 114.089 110.33 112.739 108.055 108.797L108.055 108.797C105.779 104.856 107.13 99.8154 111.071 97.5397L125.573 89.1669C129.515 86.8912 134.555 88.2417 136.831 92.1833Z" stroke="#2F2E41" stroke-width="0.359818" stroke-miterlimit="10"/>
<path d="M9.7411 165.305L9.7411 165.305C7.46541 161.363 8.81591 156.323 12.7575 154.047L27.2597 145.674C31.2013 143.399 36.2414 144.749 38.5171 148.691L38.5171 148.691C40.7928 152.632 39.4423 157.673 35.5007 159.948L20.9985 168.321C17.0569 170.597 12.0168 169.246 9.7411 165.305Z" stroke="#3F3D56" stroke-width="0.359818" stroke-miterlimit="10"/>
<path d="M9.85097 91.9929L9.85099 91.9928C12.1267 88.0512 17.1668 86.7008 21.1084 88.9764L35.6106 97.3493C39.5522 99.625 40.9027 104.665 38.627 108.607L38.627 108.607C36.3513 112.548 31.3112 113.899 27.3696 111.623L12.8674 103.25C8.92578 100.975 7.57529 95.9345 9.85097 91.9929Z" stroke="#3F3D56" stroke-width="0.359818" stroke-miterlimit="10"/>
<path d="M250.873 190.956L245.083 202.759C245.083 202.759 234.617 201.423 238.848 215.229C238.848 215.229 237.735 225.696 235.508 227.923C233.281 230.15 237.289 244.847 245.306 240.616C249.815 238.236 250.097 235.504 249.481 233.568C248.524 230.683 248.337 227.597 248.939 224.617C249.744 220.85 251.193 216.032 253.768 211.889C258.89 203.65 263.789 195.633 263.789 195.633L250.873 190.956Z" fill="#A0616A"/>
<path d="M236.398 118.359C236.398 118.359 223.705 115.242 219.474 117.469C215.243 119.696 202.772 119.918 202.772 119.918C202.772 119.918 192.306 136.843 194.755 145.528C197.205 154.212 207.449 159.557 207.449 159.557L241.966 159.78L247.533 137.065C247.533 137.065 244.861 121.477 242.634 120.586C240.407 119.696 236.398 118.359 236.398 118.359Z" fill="#3F3D56"/>
<path d="M225.041 59.5694C235.495 59.5694 243.97 51.0948 243.97 40.6408C243.97 30.1868 235.495 21.7122 225.041 21.7122C214.587 21.7122 206.113 30.1868 206.113 40.6408C206.113 51.0948 214.587 59.5694 225.041 59.5694Z" fill="#2F2E41"/>
<path d="M213.239 56.8971C213.239 56.8971 215.466 66.2501 212.125 67.3635C208.785 68.4769 205.89 72.9307 205.89 72.9307L210.789 81.1702L227.491 85.4014L232.613 80.5022L236.398 70.0358L232.613 67.3635C232.613 67.3635 229.05 68.477 228.827 64.9139C228.72 62.2397 228.795 59.5613 229.05 56.8971L213.239 56.8971Z" fill="#A0616A"/>
<path opacity="0.1" d="M213.239 56.8971C213.239 56.8971 215.466 66.2501 212.125 67.3635C208.785 68.4769 205.89 72.9307 205.89 72.9307L210.789 81.1702L227.491 85.4014L232.613 80.5022L236.398 70.0358L232.613 67.3635C232.613 67.3635 229.05 68.477 228.827 64.9139C228.72 62.2397 228.795 59.5613 229.05 56.8971L213.239 56.8971Z" fill="black"/>
<path d="M221.812 63.021C229.315 63.021 235.396 56.9392 235.396 49.437C235.396 41.9347 229.315 35.8529 221.812 35.8529C214.31 35.8529 208.228 41.9347 208.228 49.437C208.228 56.9392 214.31 63.021 221.812 63.021Z" fill="#A0616A"/>
<path d="M221.033 80.5022L208.117 68.6997C208.117 68.6997 202.327 73.5988 201.659 73.5988C200.991 73.5988 192.306 76.2711 192.083 77.3846C191.86 78.498 199.655 90.3005 199.655 90.3005C199.655 90.3005 197.873 98.9854 199.655 102.771C201.436 106.557 200.1 122.813 200.1 122.813C200.1 122.813 211.903 118.582 218.138 120.586C224.373 122.591 242.634 120.586 242.634 120.586C242.634 120.586 245.306 103.439 244.193 101.212C243.079 98.9854 242.856 86.2921 242.856 86.2921L252.432 75.8258C252.432 75.8258 250.428 67.8089 242.856 67.3635C235.285 66.9182 230.608 66.4728 230.608 66.4728L221.033 80.5022Z" fill="#2F2E41"/>
<path d="M205.89 135.284C205.89 135.284 180.949 123.927 170.928 118.582C160.907 113.238 145.541 117.469 150.44 129.494C155.339 141.519 182.73 153.322 182.73 153.322C182.73 153.322 191.638 160.002 196.982 159.78C202.327 159.557 210.01 159.668 210.01 159.668L205.89 135.284Z" fill="#3F3D56"/>
<path d="M244.415 136.843C244.415 136.843 289.176 137.288 286.281 153.99C283.386 170.692 266.239 198.528 263.121 199.196C260.003 199.864 248.646 194.965 248.646 193.406C248.646 191.847 259.558 163.12 259.558 163.12L232.835 154.881L244.415 136.843Z" fill="#3F3D56"/>
<path d="M252.877 86.9602C252.877 86.9602 255.55 112.569 254.214 116.578C252.877 120.586 248.201 131.498 242.188 136.843C236.176 142.187 227.713 169.133 223.037 156.217C218.361 143.301 230.608 136.175 230.608 136.175L242.886 118.901L243.001 90.79L252.877 86.9602Z" fill="#A0616A"/>
<path d="M202.772 140.628C202.772 140.628 224.819 148.422 227.268 147.309C229.718 146.196 235.062 150.204 235.062 150.204C237.532 149.675 240.082 149.639 242.566 150.098C245.05 150.556 247.419 151.5 249.537 152.876C256.663 157.553 258.222 162.897 256.663 163.12C255.104 163.343 249.537 160.893 249.537 160.893C249.537 160.893 241.075 159.112 235.953 160.67C230.831 162.229 224.156 158.943 224.156 158.943L196.982 152.876L202.772 140.628Z" fill="#A0616A"/>
<path opacity="0.1" d="M202.772 140.628C202.772 140.628 224.819 148.422 227.268 147.309C229.718 146.196 235.062 150.204 235.062 150.204C237.532 149.675 240.082 149.639 242.566 150.098C245.05 150.556 247.419 151.5 249.537 152.876C256.663 157.553 258.222 162.897 256.663 163.12C255.104 163.343 249.537 160.893 249.537 160.893C249.537 160.893 241.075 159.112 235.953 160.67C230.831 162.229 224.156 158.943 224.156 158.943L196.982 152.876L202.772 140.628Z" fill="black"/>
<path d="M192.083 96.5359C192.083 96.5359 192.306 124.149 195.646 127.49C198.987 130.83 202.55 135.284 205.89 137.288C209.23 139.292 211.012 143.969 211.012 143.969C211.012 143.969 227.045 167.351 227.268 156.662C227.491 145.973 219.029 137.511 219.029 137.511L217.372 135.934C213.749 132.524 210.473 128.763 207.592 124.707C206.934 123.739 206.135 122.876 205.222 122.145C202.327 119.918 201.659 95.4225 201.659 95.4225L192.083 96.5359Z" fill="#A0616A"/>
<path d="M247.756 73.1534L252.432 75.8257C252.432 75.8257 254.214 87.6283 255.104 89.1871C255.995 90.7459 244.193 94.7543 242.411 93.6409C240.629 92.5274 239.739 81.6157 239.739 81.6157L247.756 73.1534Z" fill="#2F2E41"/>
<path d="M194.978 77.1617H192.083C192.083 77.1617 188.966 80.5021 189.188 87.6281C189.411 94.7542 186.516 99.208 188.297 99.8761C190.079 100.544 198.965 97.0079 198.864 97.9966C198.764 98.9853 203.44 97.2038 203.44 97.2038L200.323 85.4012L194.978 77.1617Z" fill="#2F2E41"/>
<path opacity="0.1" d="M172.598 122.813C172.598 122.813 186.182 128.603 189.968 129.494C193.754 130.385 205.989 140.808 205.989 140.808L197.637 153.49C197.637 153.49 189.077 152.431 184.401 151.54C179.724 150.649 151.888 132.166 156.565 129.049C161.241 125.931 172.598 122.813 172.598 122.813Z" fill="black"/>
<path d="M169.814 122.813C169.814 122.813 183.398 128.603 187.184 129.494C190.97 130.385 205.89 140.628 205.89 140.628L198.541 154.881C198.541 154.881 186.293 152.431 181.617 151.54C176.94 150.649 149.104 132.166 153.781 129.049C158.457 125.931 169.814 122.813 169.814 122.813Z" fill="#3F3D56"/>
<path d="M228.716 46.7647C239.17 46.7647 247.644 38.2901 247.644 27.8361C247.644 17.3821 239.17 8.90747 228.716 8.90747C218.262 8.90747 209.787 17.3821 209.787 27.8361C209.787 38.2901 218.262 46.7647 228.716 46.7647Z" fill="#2F2E41"/>
<path d="M234.06 17.8152C238.98 17.8152 242.968 13.8271 242.968 8.90758C242.968 3.98806 238.98 0 234.06 0C229.141 0 225.153 3.98806 225.153 8.90758C225.153 13.8271 229.141 17.8152 234.06 17.8152Z" fill="#2F2E41"/>
<path d="M0 259.835H317" stroke="#3F3D56" stroke-width="0.359818" stroke-miterlimit="10"/>
<path d="M72.6232 162.246C91.1928 162.246 106.246 147.193 106.246 128.623C106.246 110.054 91.1928 95 72.6232 95C54.0536 95 39 110.054 39 128.623C39 147.193 54.0536 162.246 72.6232 162.246Z" fill="#F8F16C"/>
</g>
<defs>
<clipPath id="clip0">
<rect width="317" height="260.015" fill="white"/>
</clipPath>
</defs>
</svg>
