<svg width="293" height="264" viewBox="0 0 293 264" fill="none" xmlns="http://www.w3.org/2000/svg">
<g clip-path="url(#clip0)">
<path d="M280.08 9.31494H150.443C143.308 9.31494 137.524 15.0993 137.524 22.2346V197.6C137.524 204.735 143.308 210.52 150.443 210.52H280.08C287.216 210.52 293 204.735 293 197.6V22.2346C293 15.0993 287.216 9.31494 280.08 9.31494Z" fill="#F2F2F2"/>
<path d="M272.628 0.169434H142.991C135.856 0.169434 130.072 5.95377 130.072 13.0891V188.454C130.072 195.59 135.856 201.374 142.991 201.374H272.628C279.764 201.374 285.548 195.59 285.548 188.454V13.0891C285.548 5.95377 279.764 0.169434 272.628 0.169434Z" stroke="#3F3D56" stroke-width="0.338728" stroke-miterlimit="10"/>
<path d="M276.233 20.9911H138.032V180.552H276.233V20.9911Z" stroke="#3F3D56" stroke-width="0.338728" stroke-miterlimit="10"/>
<path d="M207.81 13.8878C209.681 13.8878 211.197 12.3713 211.197 10.5006C211.197 8.62982 209.681 7.11328 207.81 7.11328C205.939 7.11328 204.423 8.62982 204.423 10.5006C204.423 12.3713 205.939 13.8878 207.81 13.8878Z" stroke="#3F3D56" stroke-width="0.338728" stroke-miterlimit="10"/>
<path d="M207.81 198.325C211.926 198.325 215.262 194.989 215.262 190.873C215.262 186.758 211.926 183.421 207.81 183.421C203.694 183.421 200.358 186.758 200.358 190.873C200.358 194.989 203.694 198.325 207.81 198.325Z" stroke="#3F3D56" stroke-width="0.338728" stroke-miterlimit="10"/>
<path d="M203.572 38.4685C200.592 38.4685 197.64 39.0556 194.886 40.1963C192.132 41.337 189.63 43.0089 187.522 45.1166C185.415 47.2243 183.743 49.7266 182.602 52.4804C181.461 55.2343 180.874 58.1858 180.874 61.1666C180.874 73.7024 204.653 119.938 204.653 119.938C204.653 119.938 226.271 73.7024 226.271 61.1666C226.271 55.1467 223.879 49.3733 219.622 45.1166C215.366 40.8599 209.592 38.4685 203.572 38.4685ZM203.572 76.2987C201.221 76.2987 198.922 75.6014 196.967 74.2949C195.012 72.9885 193.488 71.1316 192.588 68.9591C191.688 66.7866 191.453 64.396 191.911 62.0897C192.37 59.7833 193.503 57.6648 195.165 56.0021C196.828 54.3393 198.947 53.2069 201.253 52.7482C203.559 52.2894 205.95 52.5249 208.122 53.4247C210.295 54.3246 212.152 55.8485 213.458 57.8037C214.765 59.759 215.462 62.0577 215.462 64.4092C215.462 67.5625 214.209 70.5866 211.98 72.8163C209.75 75.046 206.726 76.2987 203.572 76.2987V76.2987Z" fill="#6C63FF"/>
<path d="M203.576 143.113C216.11 143.113 226.271 139.776 226.271 135.661C226.271 131.545 216.11 128.209 203.576 128.209C191.042 128.209 180.881 131.545 180.881 135.661C180.881 139.776 191.042 143.113 203.576 143.113Z" fill="#6C63FF"/>
<path d="M122.579 32.5035C121.135 32.5851 119.743 33.0673 118.558 33.896C117.372 34.7247 116.441 35.8671 115.869 37.1953C114.191 41.2511 116.352 46.0154 119.595 48.9729C122.838 51.9305 127.004 53.6211 130.789 55.8431C135.873 58.8278 140.442 62.9709 142.986 68.2893C145.53 73.6077 145.8 80.1957 142.81 85.2765C140.034 89.9924 134.988 92.8149 130.175 95.418" stroke="#3F3D56" stroke-width="0.338728" stroke-miterlimit="10"/>
<path d="M126.854 35.7358C130.128 35.7358 132.782 34.4467 132.782 32.8566C132.782 31.2665 130.128 29.9774 126.854 29.9774C123.58 29.9774 120.926 31.2665 120.926 32.8566C120.926 34.4467 123.58 35.7358 126.854 35.7358Z" fill="#57B894"/>
<path d="M131.596 54.7045C134.87 54.7045 137.524 53.4155 137.524 51.8254C137.524 50.2352 134.87 48.9462 131.596 48.9462C128.322 48.9462 125.668 50.2352 125.668 51.8254C125.668 53.4155 128.322 54.7045 131.596 54.7045Z" fill="#57B894"/>
<path d="M120.757 57.7531C124.03 57.7531 126.684 56.4641 126.684 54.8739C126.684 53.2838 124.03 51.9948 120.757 51.9948C117.483 51.9948 114.829 53.2838 114.829 54.8739C114.829 56.4641 117.483 57.7531 120.757 57.7531Z" fill="#57B894"/>
<path d="M137.693 73.6734C140.967 73.6734 143.621 72.3844 143.621 70.7942C143.621 69.2041 140.967 67.915 137.693 67.915C134.419 67.915 131.765 69.2041 131.765 70.7942C131.765 72.3844 134.419 73.6734 137.693 73.6734Z" fill="#57B894"/>
<path d="M149.549 73.6734C152.822 73.6734 155.476 72.3844 155.476 70.7942C155.476 69.2041 152.822 67.915 149.549 67.915C146.275 67.915 143.621 69.2041 143.621 70.7942C143.621 72.3844 146.275 73.6734 149.549 73.6734Z" fill="#57B894"/>
<path d="M16.0865 263.722H137.524" stroke="#3F3D56" stroke-width="0.338728" stroke-miterlimit="10"/>
<path d="M11.633 205.04C10.2884 205.116 8.99162 205.565 7.88795 206.337C6.78429 207.108 5.9174 208.172 5.38449 209.409C3.82205 213.186 5.8338 217.622 8.85381 220.376C11.8738 223.13 15.7532 224.704 19.278 226.774C24.0123 229.553 28.2664 233.411 30.6353 238.363C33.0042 243.316 33.2561 249.45 30.4716 254.182C27.8872 258.573 23.1877 261.201 18.7057 263.625" stroke="#3F3D56" stroke-width="0.338728" stroke-miterlimit="10"/>
<path d="M15.6133 208.05C18.6619 208.05 21.1332 206.849 21.1332 205.369C21.1332 203.888 18.6619 202.688 15.6133 202.688C12.5648 202.688 10.0934 203.888 10.0934 205.369C10.0934 206.849 12.5648 208.05 15.6133 208.05Z" fill="#57B894"/>
<path d="M20.0293 225.713C23.0778 225.713 25.5491 224.513 25.5491 223.032C25.5491 221.552 23.0778 220.351 20.0293 220.351C16.9807 220.351 14.5094 221.552 14.5094 223.032C14.5094 224.513 16.9807 225.713 20.0293 225.713Z" fill="#57B894"/>
<path d="M9.93583 228.552C12.9844 228.552 15.4557 227.352 15.4557 225.871C15.4557 224.39 12.9844 223.19 9.93583 223.19C6.88729 223.19 4.41595 224.39 4.41595 225.871C4.41595 227.352 6.88729 228.552 9.93583 228.552Z" fill="#57B894"/>
<path d="M25.7069 243.377C28.7554 243.377 31.2268 242.177 31.2268 240.696C31.2268 239.215 28.7554 238.015 25.7069 238.015C22.6583 238.015 20.187 239.215 20.187 240.696C20.187 242.177 22.6583 243.377 25.7069 243.377Z" fill="#57B894"/>
<path d="M36.7466 243.377C39.7952 243.377 42.2665 242.177 42.2665 240.696C42.2665 239.215 39.7952 238.015 36.7466 238.015C33.6981 238.015 31.2267 239.215 31.2267 240.696C31.2267 242.177 33.6981 243.377 36.7466 243.377Z" fill="#57B894"/>
<path d="M25.0174 215.872C26.1154 215.934 27.1745 216.301 28.0758 216.931C28.9771 217.561 29.6851 218.43 30.1203 219.44C31.3963 222.525 29.7534 226.148 27.287 228.397C24.8207 230.646 21.6525 231.932 18.774 233.621C14.9076 235.891 11.4334 239.042 9.49879 243.086C7.56424 247.131 7.35847 252.141 9.63246 256.005C11.7431 259.591 15.581 261.737 19.2413 263.717" stroke="#3F3D56" stroke-width="0.338728" stroke-miterlimit="10"/>
<path d="M21.7667 218.33C24.2563 218.33 26.2746 217.35 26.2746 216.141C26.2746 214.931 24.2563 213.951 21.7667 213.951C19.277 213.951 17.2588 214.931 17.2588 216.141C17.2588 217.35 19.277 218.33 21.7667 218.33Z" fill="#57B894"/>
<path d="M18.1604 232.756C20.65 232.756 22.6683 231.775 22.6683 230.566C22.6683 229.357 20.65 228.376 18.1604 228.376C15.6707 228.376 13.6525 229.357 13.6525 230.566C13.6525 231.775 15.6707 232.756 18.1604 232.756Z" fill="#57B894"/>
<path d="M26.4034 235.074C28.8931 235.074 30.9113 234.094 30.9113 232.885C30.9113 231.675 28.8931 230.695 26.4034 230.695C23.9138 230.695 21.8955 231.675 21.8955 232.885C21.8955 234.094 23.9138 235.074 26.4034 235.074Z" fill="#57B894"/>
<path d="M13.5237 247.181C16.0134 247.181 18.0316 246.201 18.0316 244.991C18.0316 243.782 16.0134 242.802 13.5237 242.802C11.0341 242.802 9.01581 243.782 9.01581 244.991C9.01581 246.201 11.0341 247.181 13.5237 247.181Z" fill="#57B894"/>
<path d="M4.5079 247.181C6.99754 247.181 9.0158 246.201 9.0158 244.991C9.0158 243.782 6.99754 242.802 4.5079 242.802C2.01825 242.802 0 243.782 0 244.991C0 246.201 2.01825 247.181 4.5079 247.181Z" fill="#57B894"/>
<path d="M43.9824 249.814C43.9824 249.814 47.1366 251.391 49.3445 251.706C51.5525 252.022 52.7944 249.788 52.3311 249.012C51.8679 248.237 53.7604 248.867 55.0221 251.706C55.0221 251.706 60.3843 258.015 63.5385 258.33C66.6927 258.645 66.7173 262.916 65.1156 263.061C63.3808 263.219 60.3843 264.323 56.5992 263.061C52.8142 261.8 49.3445 258.33 47.7674 258.33C46.1903 258.33 40.8282 255.807 42.4053 254.545C43.9824 253.283 43.9824 249.814 43.9824 249.814Z" fill="#3F3D56"/>
<path d="M75.0703 256.94C76.6805 257.064 78.3001 256.965 79.8831 256.645C82.0503 256.118 82.3746 253.583 81.6564 253.035C80.9383 252.486 82.9298 252.37 85.155 254.537C85.155 254.537 92.4757 258.405 95.5217 257.527C98.5676 256.649 100.176 260.605 98.7423 261.335C96.3118 262.667 93.61 263.43 90.8413 263.564C86.8584 263.797 82.3417 262.795 80.8773 263.381C79.4129 263.966 73.4972 263.613 74.4933 261.856C75.4894 260.1 75.0703 256.94 75.0703 256.94Z" fill="#3F3D56"/>
<path d="M69.7082 106.484C76.5021 106.484 82.0096 100.977 82.0096 94.1828C82.0096 87.3889 76.5021 81.8813 69.7082 81.8813C62.9143 81.8813 57.4067 87.3889 57.4067 94.1828C57.4067 100.977 62.9143 106.484 69.7082 106.484Z" fill="#FFC1C7"/>
<path d="M60.0878 99.0717C60.0878 99.0717 61.9803 112.319 57.5644 114.212C53.1485 116.104 79.9593 115.474 79.9593 115.474C79.9593 115.474 76.1742 103.488 77.1205 100.333C78.0668 97.1792 60.0878 99.0717 60.0878 99.0717Z" fill="#FFC1C7"/>
<path d="M55.6719 174.457C55.6719 174.457 54.7257 198.43 53.7794 200.953C52.8331 203.476 51.8869 220.509 51.8869 220.509L43.6859 251.42L51.256 253.944C51.256 253.944 61.6649 235.649 62.9266 233.441C64.1883 231.233 74.2818 195.906 74.2818 195.906C74.2818 195.906 73.3355 217.67 73.3355 224.925C73.3355 232.18 75.2281 258.675 75.2281 258.675L81.2211 258.044L89.1066 224.609C89.1066 224.609 100.462 179.504 92.8917 174.457C85.3215 169.411 55.6719 174.457 55.6719 174.457Z" fill="#2F2E41"/>
<path d="M101.723 182.028C101.723 182.028 102.039 200.322 98.2538 197.483C94.4687 194.645 98.2538 180.451 98.2538 180.451L101.723 182.028Z" fill="#FFC1C7"/>
<path d="M49.3634 175.719C49.3634 175.719 49.6789 194.014 45.8938 191.175C42.1087 188.336 45.8938 174.142 45.8938 174.142L49.3634 175.719Z" fill="#FFC1C7"/>
<path d="M95.7304 122.413C95.7304 122.413 89.4219 115.158 84.0598 116.105C78.6976 117.051 49.3634 116.735 49.3634 116.735C49.3634 116.735 39.5853 129.037 42.1087 131.56C44.6321 134.084 52.8331 178.873 52.8331 178.873C52.8331 178.873 74.5971 176.035 82.1672 176.035C89.7374 176.035 92.8916 174.773 92.8916 174.773C92.8916 174.773 82.7981 154.586 87.5294 145.439C92.2607 136.291 99.2 126.513 99.2 126.513L95.7304 122.413Z" fill="#6C63FF"/>
<path d="M93.8379 124.621L99.2001 126.513C99.2001 126.513 102.354 137.553 102.354 146.385C102.354 155.217 102.67 159.633 103.931 162.787C105.193 165.941 109.294 180.766 107.086 183.92C105.867 185.716 104.377 187.312 102.67 188.652L95.415 188.021C95.415 188.021 95.0996 177.612 93.2071 176.665C91.3145 175.719 88.7912 169.726 88.7912 169.726C88.7912 169.726 82.7981 150.486 86.5832 144.177C90.3683 137.869 93.8379 124.621 93.8379 124.621Z" fill="#6C63FF"/>
<path d="M73.6509 136.292C73.6509 136.292 76.8051 122.413 70.8121 123.044C64.8191 123.675 56.6182 123.99 54.4102 123.99C52.2023 123.99 39.5854 122.413 37.6929 130.614C35.8004 138.815 33.277 148.908 38.6391 155.217C38.6391 155.217 40.5317 182.974 47.7864 184.867C55.0411 186.759 74.2818 188.967 81.221 179.82C88.1603 170.673 85.3215 160.579 85.3215 160.579H82.1673L73.6509 136.292Z" fill="#3F3D56"/>
<path d="M84.0598 161.21L86.583 144.177L85.3216 161.841L84.0598 161.21Z" fill="#3F3D56"/>
<path opacity="0.1" d="M41.7933 157.425C41.7933 157.425 47.1555 159.948 58.1952 158.371V163.102L41.7933 161.841V157.425Z" fill="black"/>
<path d="M70.6544 122.886L78.8553 118.47L71.9161 124.463L70.6544 122.886Z" fill="#3F3D56"/>
<path d="M88.1603 118.313C88.1603 118.313 94.4687 120.521 94.4687 118.313C94.4687 116.105 88.7911 114.212 85.3215 112.95C81.8519 111.689 65.45 109.796 62.9266 108.85C60.4032 107.904 48.4172 106.327 47.4709 110.112C46.5247 113.897 46.2093 121.782 50.9406 122.728C55.6719 123.675 67.9733 121.151 74.2817 121.782C80.5902 122.413 88.1603 118.313 88.1603 118.313Z" fill="#6C63FF"/>
<path opacity="0.1" d="M88.1603 118.313C88.1603 118.313 94.4687 120.521 94.4687 118.313C94.4687 116.105 88.7911 114.212 85.3215 112.95C81.8519 111.689 65.45 109.796 62.9266 108.85C60.4032 107.904 48.4172 106.327 47.4709 110.112C46.5247 113.897 46.2093 121.782 50.9406 122.728C55.6719 123.675 67.9733 121.151 74.2817 121.782C80.5902 122.413 88.1603 118.313 88.1603 118.313Z" fill="black"/>
<path d="M44.159 125.409L46.3028 120.906L46.6825 126.356L44.159 125.409Z" fill="#3F3D56"/>
<path d="M67.5763 106.88C73.9368 106.88 79.093 100.889 79.093 93.4999C79.093 86.1104 73.9368 80.1201 67.5763 80.1201C61.2157 80.1201 56.0595 86.1104 56.0595 93.4999C56.0595 100.889 61.2157 106.88 67.5763 106.88Z" fill="#2F2E41"/>
<path d="M69.6087 93.6693C75.9692 93.6693 81.1254 90.4088 81.1254 86.3867C81.1254 82.3646 75.9692 79.104 69.6087 79.104C63.2481 79.104 58.0919 82.3646 58.0919 86.3867C58.0919 90.4088 63.2481 93.6693 69.6087 93.6693Z" fill="#2F2E41"/>
<path d="M78.585 99.4277C79.2397 99.4277 79.7705 98.5177 79.7705 97.3953C79.7705 96.2728 79.2397 95.3629 78.585 95.3629C77.9302 95.3629 77.3994 96.2728 77.3994 97.3953C77.3994 98.5177 77.9302 99.4277 78.585 99.4277Z" fill="#FFC1C7"/>
<path d="M76.9314 84.5529C78.1429 83.8898 79.1779 82.6909 79.9528 81.0532C80.0286 81.4173 80.049 81.7908 80.0133 82.161C80.5163 82.1042 81.005 81.9569 81.4556 81.7261L81.3475 82.9068C82.2178 82.3736 83.0177 81.7332 83.7283 81.0005C83.9209 82.723 83.6323 84.4652 82.8943 86.0334C82.2659 87.2743 81.4119 88.0813 80.5668 88.8763" fill="#2F2E41"/>
</g>
<defs>
<clipPath id="clip0">
<rect width="293" height="263.891" fill="white"/>
</clipPath>
</defs>
</svg>
